M48
; DRILL file KiCad 10.0.4-10.0.4~ubuntu24.04.1 date 2026-06-20T21:45:27
; FORMAT={-:-/ absolute / metric / decimal}
; #@! TF.CreationDate,2026-06-20T21:45:27+08:00
; #@! TF.GenerationSoftware,Kicad,Pcbnew,10.0.4-10.0.4~ubuntu24.04.1
; #@! TF.FileFunction,MixedPlating,1,2
FMAT,2
METRIC
; #@! TA.AperFunction,Plated,PTH,ComponentDrill
T1C1.000
; #@! TA.AperFunction,NonPlated,NPTH,ComponentDrill
T2C4.000
%
G90
G05
T1
X140.5Y-74.0
X143.0Y-74.0
X149.54Y-78.77
X149.54Y-81.31
X149.54Y-83.85
X149.54Y-86.39
X149.54Y-88.93
X149.54Y-91.47
X149.54Y-94.01
X149.54Y-96.55
X149.54Y-99.09
X149.54Y-101.63
X149.54Y-104.17
X149.54Y-106.71
X149.54Y-109.25
X149.54Y-111.79
X149.54Y-114.33
X152.34Y-58.77
X154.88Y-58.77
X157.42Y-58.77
X159.96Y-58.77
X162.5Y-58.77
X165.04Y-58.77
X167.58Y-58.77
X170.12Y-58.77
X173.04Y-78.77
X173.04Y-81.31
X173.04Y-83.85
X173.04Y-86.39
X173.04Y-88.93
X173.04Y-91.47
X173.04Y-94.01
X173.04Y-96.55
X173.04Y-99.09
X173.04Y-101.63
X173.04Y-104.17
X173.04Y-106.71
X173.04Y-109.25
X173.04Y-111.79
X173.04Y-114.33
T2
X139.5Y-57.0
X139.5Y-118.0
X186.5Y-56.5
X186.5Y-118.0
M30
