%TF.GenerationSoftware,KiCad,Pcbnew,10.0.4-10.0.4~ubuntu24.04.1*%
%TF.CreationDate,2026-06-20T21:45:27+08:00*%
%TF.ProjectId,SedentaryDetector,53656465-6e74-4617-9279-446574656374,rev?*%
%TF.SameCoordinates,Original*%
%TF.FileFunction,Legend,Top*%
%TF.FilePolarity,Positive*%
%FSLAX46Y46*%
G04 Gerber Fmt 4.6, Leading zero omitted, Abs format (unit mm)*
G04 Created by KiCad (PCBNEW 10.0.4-10.0.4~ubuntu24.04.1) date 2026-06-20 21:45:27*
%MOMM*%
%LPD*%
G01*
G04 APERTURE LIST*
%ADD10C,0.100000*%
%ADD11C,0.125000*%
%ADD12C,0.150000*%
%ADD13C,0.158750*%
G04 APERTURE END LIST*
D10*
X135500000Y-122000000D02*
X190500000Y-122000000D01*
X136000000Y-53000000D02*
X135500000Y-122000000D01*
X190500000Y-53000000D02*
X136000000Y-53000000D01*
X190500000Y-122000000D02*
X190500000Y-53000000D01*
D11*
X141416190Y-112153595D02*
X141035238Y-112153595D01*
X141035238Y-112153595D02*
X141035238Y-111353595D01*
X141682857Y-111848833D02*
X142292381Y-111848833D01*
X142673333Y-112153595D02*
X142673333Y-111353595D01*
X142673333Y-111353595D02*
X142978095Y-111353595D01*
X142978095Y-111353595D02*
X143054285Y-111391690D01*
X143054285Y-111391690D02*
X143092380Y-111429785D01*
X143092380Y-111429785D02*
X143130476Y-111505976D01*
X143130476Y-111505976D02*
X143130476Y-111620261D01*
X143130476Y-111620261D02*
X143092380Y-111696452D01*
X143092380Y-111696452D02*
X143054285Y-111734547D01*
X143054285Y-111734547D02*
X142978095Y-111772642D01*
X142978095Y-111772642D02*
X142673333Y-111772642D01*
X143892380Y-112153595D02*
X143435237Y-112153595D01*
X143663809Y-112153595D02*
X143663809Y-111353595D01*
X143663809Y-111353595D02*
X143587618Y-111467880D01*
X143587618Y-111467880D02*
X143511428Y-111544071D01*
X143511428Y-111544071D02*
X143435237Y-111582166D01*
X144578095Y-111620261D02*
X144578095Y-112153595D01*
X144387619Y-111315500D02*
X144197142Y-111886928D01*
X144197142Y-111886928D02*
X144692381Y-111886928D01*
X144997143Y-111848833D02*
X145606667Y-111848833D01*
X146406666Y-111391690D02*
X146330476Y-111353595D01*
X146330476Y-111353595D02*
X146216190Y-111353595D01*
X146216190Y-111353595D02*
X146101904Y-111391690D01*
X146101904Y-111391690D02*
X146025714Y-111467880D01*
X146025714Y-111467880D02*
X145987619Y-111544071D01*
X145987619Y-111544071D02*
X145949523Y-111696452D01*
X145949523Y-111696452D02*
X145949523Y-111810738D01*
X145949523Y-111810738D02*
X145987619Y-111963119D01*
X145987619Y-111963119D02*
X146025714Y-112039309D01*
X146025714Y-112039309D02*
X146101904Y-112115500D01*
X146101904Y-112115500D02*
X146216190Y-112153595D01*
X146216190Y-112153595D02*
X146292381Y-112153595D01*
X146292381Y-112153595D02*
X146406666Y-112115500D01*
X146406666Y-112115500D02*
X146444762Y-112077404D01*
X146444762Y-112077404D02*
X146444762Y-111810738D01*
X146444762Y-111810738D02*
X146292381Y-111810738D01*
X146787619Y-112153595D02*
X146787619Y-111353595D01*
X146787619Y-111353595D02*
X147244762Y-112153595D01*
X147244762Y-112153595D02*
X147244762Y-111353595D01*
X147625714Y-112153595D02*
X147625714Y-111353595D01*
X147625714Y-111353595D02*
X147816190Y-111353595D01*
X147816190Y-111353595D02*
X147930476Y-111391690D01*
X147930476Y-111391690D02*
X148006666Y-111467880D01*
X148006666Y-111467880D02*
X148044761Y-111544071D01*
X148044761Y-111544071D02*
X148082857Y-111696452D01*
X148082857Y-111696452D02*
X148082857Y-111810738D01*
X148082857Y-111810738D02*
X148044761Y-111963119D01*
X148044761Y-111963119D02*
X148006666Y-112039309D01*
X148006666Y-112039309D02*
X147930476Y-112115500D01*
X147930476Y-112115500D02*
X147816190Y-112153595D01*
X147816190Y-112153595D02*
X147625714Y-112153595D01*
X141911428Y-114693595D02*
X141530476Y-114693595D01*
X141530476Y-114693595D02*
X141530476Y-113893595D01*
X142178095Y-114388833D02*
X142787619Y-114388833D01*
X143168571Y-114693595D02*
X143168571Y-113893595D01*
X143168571Y-113893595D02*
X143473333Y-113893595D01*
X143473333Y-113893595D02*
X143549523Y-113931690D01*
X143549523Y-113931690D02*
X143587618Y-113969785D01*
X143587618Y-113969785D02*
X143625714Y-114045976D01*
X143625714Y-114045976D02*
X143625714Y-114160261D01*
X143625714Y-114160261D02*
X143587618Y-114236452D01*
X143587618Y-114236452D02*
X143549523Y-114274547D01*
X143549523Y-114274547D02*
X143473333Y-114312642D01*
X143473333Y-114312642D02*
X143168571Y-114312642D01*
X144387618Y-114693595D02*
X143930475Y-114693595D01*
X144159047Y-114693595D02*
X144159047Y-113893595D01*
X144159047Y-113893595D02*
X144082856Y-114007880D01*
X144082856Y-114007880D02*
X144006666Y-114084071D01*
X144006666Y-114084071D02*
X143930475Y-114122166D01*
X145111428Y-113893595D02*
X144730476Y-113893595D01*
X144730476Y-113893595D02*
X144692380Y-114274547D01*
X144692380Y-114274547D02*
X144730476Y-114236452D01*
X144730476Y-114236452D02*
X144806666Y-114198357D01*
X144806666Y-114198357D02*
X144997142Y-114198357D01*
X144997142Y-114198357D02*
X145073333Y-114236452D01*
X145073333Y-114236452D02*
X145111428Y-114274547D01*
X145111428Y-114274547D02*
X145149523Y-114350738D01*
X145149523Y-114350738D02*
X145149523Y-114541214D01*
X145149523Y-114541214D02*
X145111428Y-114617404D01*
X145111428Y-114617404D02*
X145073333Y-114655500D01*
X145073333Y-114655500D02*
X144997142Y-114693595D01*
X144997142Y-114693595D02*
X144806666Y-114693595D01*
X144806666Y-114693595D02*
X144730476Y-114655500D01*
X144730476Y-114655500D02*
X144692380Y-114617404D01*
X145492381Y-114388833D02*
X146101905Y-114388833D01*
X146863809Y-113893595D02*
X146482857Y-113893595D01*
X146482857Y-113893595D02*
X146444761Y-114274547D01*
X146444761Y-114274547D02*
X146482857Y-114236452D01*
X146482857Y-114236452D02*
X146559047Y-114198357D01*
X146559047Y-114198357D02*
X146749523Y-114198357D01*
X146749523Y-114198357D02*
X146825714Y-114236452D01*
X146825714Y-114236452D02*
X146863809Y-114274547D01*
X146863809Y-114274547D02*
X146901904Y-114350738D01*
X146901904Y-114350738D02*
X146901904Y-114541214D01*
X146901904Y-114541214D02*
X146863809Y-114617404D01*
X146863809Y-114617404D02*
X146825714Y-114655500D01*
X146825714Y-114655500D02*
X146749523Y-114693595D01*
X146749523Y-114693595D02*
X146559047Y-114693595D01*
X146559047Y-114693595D02*
X146482857Y-114655500D01*
X146482857Y-114655500D02*
X146444761Y-114617404D01*
X147130476Y-113893595D02*
X147397143Y-114693595D01*
X147397143Y-114693595D02*
X147663809Y-113893595D01*
X151816191Y-61133595D02*
X151816191Y-60333595D01*
X152197143Y-61133595D02*
X152197143Y-60333595D01*
X152197143Y-60333595D02*
X152654286Y-61133595D01*
X152654286Y-61133595D02*
X152654286Y-60333595D01*
X152920952Y-60333595D02*
X153378095Y-60333595D01*
X153149523Y-61133595D02*
X153149523Y-60333595D01*
X154030476Y-60905023D02*
X154411429Y-60905023D01*
X153954286Y-61133595D02*
X154220953Y-60333595D01*
X154220953Y-60333595D02*
X154487619Y-61133595D01*
X154754286Y-61133595D02*
X154754286Y-60333595D01*
X154754286Y-60333595D02*
X154944762Y-60333595D01*
X154944762Y-60333595D02*
X155059048Y-60371690D01*
X155059048Y-60371690D02*
X155135238Y-60447880D01*
X155135238Y-60447880D02*
X155173333Y-60524071D01*
X155173333Y-60524071D02*
X155211429Y-60676452D01*
X155211429Y-60676452D02*
X155211429Y-60790738D01*
X155211429Y-60790738D02*
X155173333Y-60943119D01*
X155173333Y-60943119D02*
X155135238Y-61019309D01*
X155135238Y-61019309D02*
X155059048Y-61095500D01*
X155059048Y-61095500D02*
X154944762Y-61133595D01*
X154944762Y-61133595D02*
X154754286Y-61133595D01*
X155706667Y-60333595D02*
X155859048Y-60333595D01*
X155859048Y-60333595D02*
X155935238Y-60371690D01*
X155935238Y-60371690D02*
X156011429Y-60447880D01*
X156011429Y-60447880D02*
X156049524Y-60600261D01*
X156049524Y-60600261D02*
X156049524Y-60866928D01*
X156049524Y-60866928D02*
X156011429Y-61019309D01*
X156011429Y-61019309D02*
X155935238Y-61095500D01*
X155935238Y-61095500D02*
X155859048Y-61133595D01*
X155859048Y-61133595D02*
X155706667Y-61133595D01*
X155706667Y-61133595D02*
X155630476Y-61095500D01*
X155630476Y-61095500D02*
X155554286Y-61019309D01*
X155554286Y-61019309D02*
X155516190Y-60866928D01*
X155516190Y-60866928D02*
X155516190Y-60600261D01*
X155516190Y-60600261D02*
X155554286Y-60447880D01*
X155554286Y-60447880D02*
X155630476Y-60371690D01*
X155630476Y-60371690D02*
X155706667Y-60333595D01*
X156549523Y-60333595D02*
X157082857Y-61133595D01*
X157082857Y-60333595D02*
X156549523Y-61133595D01*
X157844762Y-61057404D02*
X157806666Y-61095500D01*
X157806666Y-61095500D02*
X157692381Y-61133595D01*
X157692381Y-61133595D02*
X157616190Y-61133595D01*
X157616190Y-61133595D02*
X157501904Y-61095500D01*
X157501904Y-61095500D02*
X157425714Y-61019309D01*
X157425714Y-61019309D02*
X157387619Y-60943119D01*
X157387619Y-60943119D02*
X157349523Y-60790738D01*
X157349523Y-60790738D02*
X157349523Y-60676452D01*
X157349523Y-60676452D02*
X157387619Y-60524071D01*
X157387619Y-60524071D02*
X157425714Y-60447880D01*
X157425714Y-60447880D02*
X157501904Y-60371690D01*
X157501904Y-60371690D02*
X157616190Y-60333595D01*
X157616190Y-60333595D02*
X157692381Y-60333595D01*
X157692381Y-60333595D02*
X157806666Y-60371690D01*
X157806666Y-60371690D02*
X157844762Y-60409785D01*
X158568571Y-61133595D02*
X158187619Y-61133595D01*
X158187619Y-61133595D02*
X158187619Y-60333595D01*
X159030476Y-60333595D02*
X159563810Y-61133595D01*
X159563810Y-60333595D02*
X159030476Y-61133595D01*
X159868572Y-61133595D02*
X159868572Y-60333595D01*
X159868572Y-60333595D02*
X160059048Y-60333595D01*
X160059048Y-60333595D02*
X160173334Y-60371690D01*
X160173334Y-60371690D02*
X160249524Y-60447880D01*
X160249524Y-60447880D02*
X160287619Y-60524071D01*
X160287619Y-60524071D02*
X160325715Y-60676452D01*
X160325715Y-60676452D02*
X160325715Y-60790738D01*
X160325715Y-60790738D02*
X160287619Y-60943119D01*
X160287619Y-60943119D02*
X160249524Y-61019309D01*
X160249524Y-61019309D02*
X160173334Y-61095500D01*
X160173334Y-61095500D02*
X160059048Y-61133595D01*
X160059048Y-61133595D02*
X159868572Y-61133595D01*
X160630476Y-60905023D02*
X161011429Y-60905023D01*
X160554286Y-61133595D02*
X160820953Y-60333595D01*
X160820953Y-60333595D02*
X161087619Y-61133595D01*
X161568571Y-61095500D02*
X161682857Y-61133595D01*
X161682857Y-61133595D02*
X161873333Y-61133595D01*
X161873333Y-61133595D02*
X161949524Y-61095500D01*
X161949524Y-61095500D02*
X161987619Y-61057404D01*
X161987619Y-61057404D02*
X162025714Y-60981214D01*
X162025714Y-60981214D02*
X162025714Y-60905023D01*
X162025714Y-60905023D02*
X161987619Y-60828833D01*
X161987619Y-60828833D02*
X161949524Y-60790738D01*
X161949524Y-60790738D02*
X161873333Y-60752642D01*
X161873333Y-60752642D02*
X161720952Y-60714547D01*
X161720952Y-60714547D02*
X161644762Y-60676452D01*
X161644762Y-60676452D02*
X161606667Y-60638357D01*
X161606667Y-60638357D02*
X161568571Y-60562166D01*
X161568571Y-60562166D02*
X161568571Y-60485976D01*
X161568571Y-60485976D02*
X161606667Y-60409785D01*
X161606667Y-60409785D02*
X161644762Y-60371690D01*
X161644762Y-60371690D02*
X161720952Y-60333595D01*
X161720952Y-60333595D02*
X161911429Y-60333595D01*
X161911429Y-60333595D02*
X162025714Y-60371690D01*
X162368572Y-61133595D02*
X162368572Y-60333595D01*
X162368572Y-60333595D02*
X162559048Y-60333595D01*
X162559048Y-60333595D02*
X162673334Y-60371690D01*
X162673334Y-60371690D02*
X162749524Y-60447880D01*
X162749524Y-60447880D02*
X162787619Y-60524071D01*
X162787619Y-60524071D02*
X162825715Y-60676452D01*
X162825715Y-60676452D02*
X162825715Y-60790738D01*
X162825715Y-60790738D02*
X162787619Y-60943119D01*
X162787619Y-60943119D02*
X162749524Y-61019309D01*
X162749524Y-61019309D02*
X162673334Y-61095500D01*
X162673334Y-61095500D02*
X162559048Y-61133595D01*
X162559048Y-61133595D02*
X162368572Y-61133595D01*
X163130476Y-60905023D02*
X163511429Y-60905023D01*
X163054286Y-61133595D02*
X163320953Y-60333595D01*
X163320953Y-60333595D02*
X163587619Y-61133595D01*
X164087618Y-61095500D02*
X164201904Y-61133595D01*
X164201904Y-61133595D02*
X164392380Y-61133595D01*
X164392380Y-61133595D02*
X164468571Y-61095500D01*
X164468571Y-61095500D02*
X164506666Y-61057404D01*
X164506666Y-61057404D02*
X164544761Y-60981214D01*
X164544761Y-60981214D02*
X164544761Y-60905023D01*
X164544761Y-60905023D02*
X164506666Y-60828833D01*
X164506666Y-60828833D02*
X164468571Y-60790738D01*
X164468571Y-60790738D02*
X164392380Y-60752642D01*
X164392380Y-60752642D02*
X164239999Y-60714547D01*
X164239999Y-60714547D02*
X164163809Y-60676452D01*
X164163809Y-60676452D02*
X164125714Y-60638357D01*
X164125714Y-60638357D02*
X164087618Y-60562166D01*
X164087618Y-60562166D02*
X164087618Y-60485976D01*
X164087618Y-60485976D02*
X164125714Y-60409785D01*
X164125714Y-60409785D02*
X164163809Y-60371690D01*
X164163809Y-60371690D02*
X164239999Y-60333595D01*
X164239999Y-60333595D02*
X164430476Y-60333595D01*
X164430476Y-60333595D02*
X164544761Y-60371690D01*
X165344762Y-61057404D02*
X165306666Y-61095500D01*
X165306666Y-61095500D02*
X165192381Y-61133595D01*
X165192381Y-61133595D02*
X165116190Y-61133595D01*
X165116190Y-61133595D02*
X165001904Y-61095500D01*
X165001904Y-61095500D02*
X164925714Y-61019309D01*
X164925714Y-61019309D02*
X164887619Y-60943119D01*
X164887619Y-60943119D02*
X164849523Y-60790738D01*
X164849523Y-60790738D02*
X164849523Y-60676452D01*
X164849523Y-60676452D02*
X164887619Y-60524071D01*
X164887619Y-60524071D02*
X164925714Y-60447880D01*
X164925714Y-60447880D02*
X165001904Y-60371690D01*
X165001904Y-60371690D02*
X165116190Y-60333595D01*
X165116190Y-60333595D02*
X165192381Y-60333595D01*
X165192381Y-60333595D02*
X165306666Y-60371690D01*
X165306666Y-60371690D02*
X165344762Y-60409785D01*
X166068571Y-61133595D02*
X165687619Y-61133595D01*
X165687619Y-61133595D02*
X165687619Y-60333595D01*
X166930476Y-60371690D02*
X166854286Y-60333595D01*
X166854286Y-60333595D02*
X166740000Y-60333595D01*
X166740000Y-60333595D02*
X166625714Y-60371690D01*
X166625714Y-60371690D02*
X166549524Y-60447880D01*
X166549524Y-60447880D02*
X166511429Y-60524071D01*
X166511429Y-60524071D02*
X166473333Y-60676452D01*
X166473333Y-60676452D02*
X166473333Y-60790738D01*
X166473333Y-60790738D02*
X166511429Y-60943119D01*
X166511429Y-60943119D02*
X166549524Y-61019309D01*
X166549524Y-61019309D02*
X166625714Y-61095500D01*
X166625714Y-61095500D02*
X166740000Y-61133595D01*
X166740000Y-61133595D02*
X166816191Y-61133595D01*
X166816191Y-61133595D02*
X166930476Y-61095500D01*
X166930476Y-61095500D02*
X166968572Y-61057404D01*
X166968572Y-61057404D02*
X166968572Y-60790738D01*
X166968572Y-60790738D02*
X166816191Y-60790738D01*
X167311429Y-61133595D02*
X167311429Y-60333595D01*
X167311429Y-60333595D02*
X167768572Y-61133595D01*
X167768572Y-61133595D02*
X167768572Y-60333595D01*
X168149524Y-61133595D02*
X168149524Y-60333595D01*
X168149524Y-60333595D02*
X168340000Y-60333595D01*
X168340000Y-60333595D02*
X168454286Y-60371690D01*
X168454286Y-60371690D02*
X168530476Y-60447880D01*
X168530476Y-60447880D02*
X168568571Y-60524071D01*
X168568571Y-60524071D02*
X168606667Y-60676452D01*
X168606667Y-60676452D02*
X168606667Y-60790738D01*
X168606667Y-60790738D02*
X168568571Y-60943119D01*
X168568571Y-60943119D02*
X168530476Y-61019309D01*
X168530476Y-61019309D02*
X168454286Y-61095500D01*
X168454286Y-61095500D02*
X168340000Y-61133595D01*
X168340000Y-61133595D02*
X168149524Y-61133595D01*
X168973333Y-60333595D02*
X169240000Y-61133595D01*
X169240000Y-61133595D02*
X169506666Y-60333595D01*
X170230476Y-61057404D02*
X170192380Y-61095500D01*
X170192380Y-61095500D02*
X170078095Y-61133595D01*
X170078095Y-61133595D02*
X170001904Y-61133595D01*
X170001904Y-61133595D02*
X169887618Y-61095500D01*
X169887618Y-61095500D02*
X169811428Y-61019309D01*
X169811428Y-61019309D02*
X169773333Y-60943119D01*
X169773333Y-60943119D02*
X169735237Y-60790738D01*
X169735237Y-60790738D02*
X169735237Y-60676452D01*
X169735237Y-60676452D02*
X169773333Y-60524071D01*
X169773333Y-60524071D02*
X169811428Y-60447880D01*
X169811428Y-60447880D02*
X169887618Y-60371690D01*
X169887618Y-60371690D02*
X170001904Y-60333595D01*
X170001904Y-60333595D02*
X170078095Y-60333595D01*
X170078095Y-60333595D02*
X170192380Y-60371690D01*
X170192380Y-60371690D02*
X170230476Y-60409785D01*
X171030476Y-61057404D02*
X170992380Y-61095500D01*
X170992380Y-61095500D02*
X170878095Y-61133595D01*
X170878095Y-61133595D02*
X170801904Y-61133595D01*
X170801904Y-61133595D02*
X170687618Y-61095500D01*
X170687618Y-61095500D02*
X170611428Y-61019309D01*
X170611428Y-61019309D02*
X170573333Y-60943119D01*
X170573333Y-60943119D02*
X170535237Y-60790738D01*
X170535237Y-60790738D02*
X170535237Y-60676452D01*
X170535237Y-60676452D02*
X170573333Y-60524071D01*
X170573333Y-60524071D02*
X170611428Y-60447880D01*
X170611428Y-60447880D02*
X170687618Y-60371690D01*
X170687618Y-60371690D02*
X170801904Y-60333595D01*
X170801904Y-60333595D02*
X170878095Y-60333595D01*
X170878095Y-60333595D02*
X170992380Y-60371690D01*
X170992380Y-60371690D02*
X171030476Y-60409785D01*
D12*
X141720952Y-79132295D02*
X141340000Y-79132295D01*
X141340000Y-79132295D02*
X141340000Y-78332295D01*
X141987619Y-78827533D02*
X142597143Y-78827533D01*
X142978095Y-79132295D02*
X142978095Y-78332295D01*
X142978095Y-78332295D02*
X143282857Y-78332295D01*
X143282857Y-78332295D02*
X143359047Y-78370390D01*
X143359047Y-78370390D02*
X143397142Y-78408485D01*
X143397142Y-78408485D02*
X143435238Y-78484676D01*
X143435238Y-78484676D02*
X143435238Y-78598961D01*
X143435238Y-78598961D02*
X143397142Y-78675152D01*
X143397142Y-78675152D02*
X143359047Y-78713247D01*
X143359047Y-78713247D02*
X143282857Y-78751342D01*
X143282857Y-78751342D02*
X142978095Y-78751342D01*
X144197142Y-79132295D02*
X143739999Y-79132295D01*
X143968571Y-79132295D02*
X143968571Y-78332295D01*
X143968571Y-78332295D02*
X143892380Y-78446580D01*
X143892380Y-78446580D02*
X143816190Y-78522771D01*
X143816190Y-78522771D02*
X143739999Y-78560866D01*
X144540000Y-78827533D02*
X145149524Y-78827533D01*
X145454285Y-78332295D02*
X145949523Y-78332295D01*
X145949523Y-78332295D02*
X145682857Y-78637057D01*
X145682857Y-78637057D02*
X145797142Y-78637057D01*
X145797142Y-78637057D02*
X145873333Y-78675152D01*
X145873333Y-78675152D02*
X145911428Y-78713247D01*
X145911428Y-78713247D02*
X145949523Y-78789438D01*
X145949523Y-78789438D02*
X145949523Y-78979914D01*
X145949523Y-78979914D02*
X145911428Y-79056104D01*
X145911428Y-79056104D02*
X145873333Y-79094200D01*
X145873333Y-79094200D02*
X145797142Y-79132295D01*
X145797142Y-79132295D02*
X145568571Y-79132295D01*
X145568571Y-79132295D02*
X145492380Y-79094200D01*
X145492380Y-79094200D02*
X145454285Y-79056104D01*
X146292381Y-79056104D02*
X146330476Y-79094200D01*
X146330476Y-79094200D02*
X146292381Y-79132295D01*
X146292381Y-79132295D02*
X146254285Y-79094200D01*
X146254285Y-79094200D02*
X146292381Y-79056104D01*
X146292381Y-79056104D02*
X146292381Y-79132295D01*
X146597142Y-78332295D02*
X147092380Y-78332295D01*
X147092380Y-78332295D02*
X146825714Y-78637057D01*
X146825714Y-78637057D02*
X146939999Y-78637057D01*
X146939999Y-78637057D02*
X147016190Y-78675152D01*
X147016190Y-78675152D02*
X147054285Y-78713247D01*
X147054285Y-78713247D02*
X147092380Y-78789438D01*
X147092380Y-78789438D02*
X147092380Y-78979914D01*
X147092380Y-78979914D02*
X147054285Y-79056104D01*
X147054285Y-79056104D02*
X147016190Y-79094200D01*
X147016190Y-79094200D02*
X146939999Y-79132295D01*
X146939999Y-79132295D02*
X146711428Y-79132295D01*
X146711428Y-79132295D02*
X146635237Y-79094200D01*
X146635237Y-79094200D02*
X146597142Y-79056104D01*
X147320952Y-78332295D02*
X147587619Y-79132295D01*
X147587619Y-79132295D02*
X147854285Y-78332295D01*
X143511428Y-81672295D02*
X143130476Y-81672295D01*
X143130476Y-81672295D02*
X143130476Y-80872295D01*
X143778095Y-81367533D02*
X144387619Y-81367533D01*
X144768571Y-81672295D02*
X144768571Y-80872295D01*
X144768571Y-80872295D02*
X145073333Y-80872295D01*
X145073333Y-80872295D02*
X145149523Y-80910390D01*
X145149523Y-80910390D02*
X145187618Y-80948485D01*
X145187618Y-80948485D02*
X145225714Y-81024676D01*
X145225714Y-81024676D02*
X145225714Y-81138961D01*
X145225714Y-81138961D02*
X145187618Y-81215152D01*
X145187618Y-81215152D02*
X145149523Y-81253247D01*
X145149523Y-81253247D02*
X145073333Y-81291342D01*
X145073333Y-81291342D02*
X144768571Y-81291342D01*
X145530475Y-80948485D02*
X145568571Y-80910390D01*
X145568571Y-80910390D02*
X145644761Y-80872295D01*
X145644761Y-80872295D02*
X145835237Y-80872295D01*
X145835237Y-80872295D02*
X145911428Y-80910390D01*
X145911428Y-80910390D02*
X145949523Y-80948485D01*
X145949523Y-80948485D02*
X145987618Y-81024676D01*
X145987618Y-81024676D02*
X145987618Y-81100866D01*
X145987618Y-81100866D02*
X145949523Y-81215152D01*
X145949523Y-81215152D02*
X145492380Y-81672295D01*
X145492380Y-81672295D02*
X145987618Y-81672295D01*
X143511428Y-84212295D02*
X143130476Y-84212295D01*
X143130476Y-84212295D02*
X143130476Y-83412295D01*
X143778095Y-83907533D02*
X144387619Y-83907533D01*
X144768571Y-84212295D02*
X144768571Y-83412295D01*
X144768571Y-83412295D02*
X145073333Y-83412295D01*
X145073333Y-83412295D02*
X145149523Y-83450390D01*
X145149523Y-83450390D02*
X145187618Y-83488485D01*
X145187618Y-83488485D02*
X145225714Y-83564676D01*
X145225714Y-83564676D02*
X145225714Y-83678961D01*
X145225714Y-83678961D02*
X145187618Y-83755152D01*
X145187618Y-83755152D02*
X145149523Y-83793247D01*
X145149523Y-83793247D02*
X145073333Y-83831342D01*
X145073333Y-83831342D02*
X144768571Y-83831342D01*
X145492380Y-83412295D02*
X145987618Y-83412295D01*
X145987618Y-83412295D02*
X145720952Y-83717057D01*
X145720952Y-83717057D02*
X145835237Y-83717057D01*
X145835237Y-83717057D02*
X145911428Y-83755152D01*
X145911428Y-83755152D02*
X145949523Y-83793247D01*
X145949523Y-83793247D02*
X145987618Y-83869438D01*
X145987618Y-83869438D02*
X145987618Y-84059914D01*
X145987618Y-84059914D02*
X145949523Y-84136104D01*
X145949523Y-84136104D02*
X145911428Y-84174200D01*
X145911428Y-84174200D02*
X145835237Y-84212295D01*
X145835237Y-84212295D02*
X145606666Y-84212295D01*
X145606666Y-84212295D02*
X145530475Y-84174200D01*
X145530475Y-84174200D02*
X145492380Y-84136104D01*
X143511428Y-86752295D02*
X143130476Y-86752295D01*
X143130476Y-86752295D02*
X143130476Y-85952295D01*
X143778095Y-86447533D02*
X144387619Y-86447533D01*
X144768571Y-86752295D02*
X144768571Y-85952295D01*
X144768571Y-85952295D02*
X145073333Y-85952295D01*
X145073333Y-85952295D02*
X145149523Y-85990390D01*
X145149523Y-85990390D02*
X145187618Y-86028485D01*
X145187618Y-86028485D02*
X145225714Y-86104676D01*
X145225714Y-86104676D02*
X145225714Y-86218961D01*
X145225714Y-86218961D02*
X145187618Y-86295152D01*
X145187618Y-86295152D02*
X145149523Y-86333247D01*
X145149523Y-86333247D02*
X145073333Y-86371342D01*
X145073333Y-86371342D02*
X144768571Y-86371342D01*
X145911428Y-86218961D02*
X145911428Y-86752295D01*
X145720952Y-85914200D02*
X145530475Y-86485628D01*
X145530475Y-86485628D02*
X146025714Y-86485628D01*
X143511428Y-89292295D02*
X143130476Y-89292295D01*
X143130476Y-89292295D02*
X143130476Y-88492295D01*
X143778095Y-88987533D02*
X144387619Y-88987533D01*
X144768571Y-89292295D02*
X144768571Y-88492295D01*
X144768571Y-88492295D02*
X145073333Y-88492295D01*
X145073333Y-88492295D02*
X145149523Y-88530390D01*
X145149523Y-88530390D02*
X145187618Y-88568485D01*
X145187618Y-88568485D02*
X145225714Y-88644676D01*
X145225714Y-88644676D02*
X145225714Y-88758961D01*
X145225714Y-88758961D02*
X145187618Y-88835152D01*
X145187618Y-88835152D02*
X145149523Y-88873247D01*
X145149523Y-88873247D02*
X145073333Y-88911342D01*
X145073333Y-88911342D02*
X144768571Y-88911342D01*
X145949523Y-88492295D02*
X145568571Y-88492295D01*
X145568571Y-88492295D02*
X145530475Y-88873247D01*
X145530475Y-88873247D02*
X145568571Y-88835152D01*
X145568571Y-88835152D02*
X145644761Y-88797057D01*
X145644761Y-88797057D02*
X145835237Y-88797057D01*
X145835237Y-88797057D02*
X145911428Y-88835152D01*
X145911428Y-88835152D02*
X145949523Y-88873247D01*
X145949523Y-88873247D02*
X145987618Y-88949438D01*
X145987618Y-88949438D02*
X145987618Y-89139914D01*
X145987618Y-89139914D02*
X145949523Y-89216104D01*
X145949523Y-89216104D02*
X145911428Y-89254200D01*
X145911428Y-89254200D02*
X145835237Y-89292295D01*
X145835237Y-89292295D02*
X145644761Y-89292295D01*
X145644761Y-89292295D02*
X145568571Y-89254200D01*
X145568571Y-89254200D02*
X145530475Y-89216104D01*
X143511428Y-91832295D02*
X143130476Y-91832295D01*
X143130476Y-91832295D02*
X143130476Y-91032295D01*
X143778095Y-91527533D02*
X144387619Y-91527533D01*
X144768571Y-91832295D02*
X144768571Y-91032295D01*
X144768571Y-91032295D02*
X145073333Y-91032295D01*
X145073333Y-91032295D02*
X145149523Y-91070390D01*
X145149523Y-91070390D02*
X145187618Y-91108485D01*
X145187618Y-91108485D02*
X145225714Y-91184676D01*
X145225714Y-91184676D02*
X145225714Y-91298961D01*
X145225714Y-91298961D02*
X145187618Y-91375152D01*
X145187618Y-91375152D02*
X145149523Y-91413247D01*
X145149523Y-91413247D02*
X145073333Y-91451342D01*
X145073333Y-91451342D02*
X144768571Y-91451342D01*
X145911428Y-91032295D02*
X145759047Y-91032295D01*
X145759047Y-91032295D02*
X145682856Y-91070390D01*
X145682856Y-91070390D02*
X145644761Y-91108485D01*
X145644761Y-91108485D02*
X145568571Y-91222771D01*
X145568571Y-91222771D02*
X145530475Y-91375152D01*
X145530475Y-91375152D02*
X145530475Y-91679914D01*
X145530475Y-91679914D02*
X145568571Y-91756104D01*
X145568571Y-91756104D02*
X145606666Y-91794200D01*
X145606666Y-91794200D02*
X145682856Y-91832295D01*
X145682856Y-91832295D02*
X145835237Y-91832295D01*
X145835237Y-91832295D02*
X145911428Y-91794200D01*
X145911428Y-91794200D02*
X145949523Y-91756104D01*
X145949523Y-91756104D02*
X145987618Y-91679914D01*
X145987618Y-91679914D02*
X145987618Y-91489438D01*
X145987618Y-91489438D02*
X145949523Y-91413247D01*
X145949523Y-91413247D02*
X145911428Y-91375152D01*
X145911428Y-91375152D02*
X145835237Y-91337057D01*
X145835237Y-91337057D02*
X145682856Y-91337057D01*
X145682856Y-91337057D02*
X145606666Y-91375152D01*
X145606666Y-91375152D02*
X145568571Y-91413247D01*
X145568571Y-91413247D02*
X145530475Y-91489438D01*
X143511428Y-94372295D02*
X143130476Y-94372295D01*
X143130476Y-94372295D02*
X143130476Y-93572295D01*
X143778095Y-94067533D02*
X144387619Y-94067533D01*
X144768571Y-94372295D02*
X144768571Y-93572295D01*
X144768571Y-93572295D02*
X145073333Y-93572295D01*
X145073333Y-93572295D02*
X145149523Y-93610390D01*
X145149523Y-93610390D02*
X145187618Y-93648485D01*
X145187618Y-93648485D02*
X145225714Y-93724676D01*
X145225714Y-93724676D02*
X145225714Y-93838961D01*
X145225714Y-93838961D02*
X145187618Y-93915152D01*
X145187618Y-93915152D02*
X145149523Y-93953247D01*
X145149523Y-93953247D02*
X145073333Y-93991342D01*
X145073333Y-93991342D02*
X144768571Y-93991342D01*
X145492380Y-93572295D02*
X146025714Y-93572295D01*
X146025714Y-93572295D02*
X145682856Y-94372295D01*
X143511428Y-96912295D02*
X143130476Y-96912295D01*
X143130476Y-96912295D02*
X143130476Y-96112295D01*
X143778095Y-96607533D02*
X144387619Y-96607533D01*
X144768571Y-96912295D02*
X144768571Y-96112295D01*
X144768571Y-96112295D02*
X145073333Y-96112295D01*
X145073333Y-96112295D02*
X145149523Y-96150390D01*
X145149523Y-96150390D02*
X145187618Y-96188485D01*
X145187618Y-96188485D02*
X145225714Y-96264676D01*
X145225714Y-96264676D02*
X145225714Y-96378961D01*
X145225714Y-96378961D02*
X145187618Y-96455152D01*
X145187618Y-96455152D02*
X145149523Y-96493247D01*
X145149523Y-96493247D02*
X145073333Y-96531342D01*
X145073333Y-96531342D02*
X144768571Y-96531342D01*
X145682856Y-96455152D02*
X145606666Y-96417057D01*
X145606666Y-96417057D02*
X145568571Y-96378961D01*
X145568571Y-96378961D02*
X145530475Y-96302771D01*
X145530475Y-96302771D02*
X145530475Y-96264676D01*
X145530475Y-96264676D02*
X145568571Y-96188485D01*
X145568571Y-96188485D02*
X145606666Y-96150390D01*
X145606666Y-96150390D02*
X145682856Y-96112295D01*
X145682856Y-96112295D02*
X145835237Y-96112295D01*
X145835237Y-96112295D02*
X145911428Y-96150390D01*
X145911428Y-96150390D02*
X145949523Y-96188485D01*
X145949523Y-96188485D02*
X145987618Y-96264676D01*
X145987618Y-96264676D02*
X145987618Y-96302771D01*
X145987618Y-96302771D02*
X145949523Y-96378961D01*
X145949523Y-96378961D02*
X145911428Y-96417057D01*
X145911428Y-96417057D02*
X145835237Y-96455152D01*
X145835237Y-96455152D02*
X145682856Y-96455152D01*
X145682856Y-96455152D02*
X145606666Y-96493247D01*
X145606666Y-96493247D02*
X145568571Y-96531342D01*
X145568571Y-96531342D02*
X145530475Y-96607533D01*
X145530475Y-96607533D02*
X145530475Y-96759914D01*
X145530475Y-96759914D02*
X145568571Y-96836104D01*
X145568571Y-96836104D02*
X145606666Y-96874200D01*
X145606666Y-96874200D02*
X145682856Y-96912295D01*
X145682856Y-96912295D02*
X145835237Y-96912295D01*
X145835237Y-96912295D02*
X145911428Y-96874200D01*
X145911428Y-96874200D02*
X145949523Y-96836104D01*
X145949523Y-96836104D02*
X145987618Y-96759914D01*
X145987618Y-96759914D02*
X145987618Y-96607533D01*
X145987618Y-96607533D02*
X145949523Y-96531342D01*
X145949523Y-96531342D02*
X145911428Y-96493247D01*
X145911428Y-96493247D02*
X145835237Y-96455152D01*
X143511428Y-99452295D02*
X143130476Y-99452295D01*
X143130476Y-99452295D02*
X143130476Y-98652295D01*
X143778095Y-99147533D02*
X144387619Y-99147533D01*
X144768571Y-99452295D02*
X144768571Y-98652295D01*
X144768571Y-98652295D02*
X145073333Y-98652295D01*
X145073333Y-98652295D02*
X145149523Y-98690390D01*
X145149523Y-98690390D02*
X145187618Y-98728485D01*
X145187618Y-98728485D02*
X145225714Y-98804676D01*
X145225714Y-98804676D02*
X145225714Y-98918961D01*
X145225714Y-98918961D02*
X145187618Y-98995152D01*
X145187618Y-98995152D02*
X145149523Y-99033247D01*
X145149523Y-99033247D02*
X145073333Y-99071342D01*
X145073333Y-99071342D02*
X144768571Y-99071342D01*
X145606666Y-99452295D02*
X145759047Y-99452295D01*
X145759047Y-99452295D02*
X145835237Y-99414200D01*
X145835237Y-99414200D02*
X145873333Y-99376104D01*
X145873333Y-99376104D02*
X145949523Y-99261819D01*
X145949523Y-99261819D02*
X145987618Y-99109438D01*
X145987618Y-99109438D02*
X145987618Y-98804676D01*
X145987618Y-98804676D02*
X145949523Y-98728485D01*
X145949523Y-98728485D02*
X145911428Y-98690390D01*
X145911428Y-98690390D02*
X145835237Y-98652295D01*
X145835237Y-98652295D02*
X145682856Y-98652295D01*
X145682856Y-98652295D02*
X145606666Y-98690390D01*
X145606666Y-98690390D02*
X145568571Y-98728485D01*
X145568571Y-98728485D02*
X145530475Y-98804676D01*
X145530475Y-98804676D02*
X145530475Y-98995152D01*
X145530475Y-98995152D02*
X145568571Y-99071342D01*
X145568571Y-99071342D02*
X145606666Y-99109438D01*
X145606666Y-99109438D02*
X145682856Y-99147533D01*
X145682856Y-99147533D02*
X145835237Y-99147533D01*
X145835237Y-99147533D02*
X145911428Y-99109438D01*
X145911428Y-99109438D02*
X145949523Y-99071342D01*
X145949523Y-99071342D02*
X145987618Y-98995152D01*
X143130476Y-101992295D02*
X142749524Y-101992295D01*
X142749524Y-101992295D02*
X142749524Y-101192295D01*
X143397143Y-101687533D02*
X144006667Y-101687533D01*
X144387619Y-101992295D02*
X144387619Y-101192295D01*
X144387619Y-101192295D02*
X144692381Y-101192295D01*
X144692381Y-101192295D02*
X144768571Y-101230390D01*
X144768571Y-101230390D02*
X144806666Y-101268485D01*
X144806666Y-101268485D02*
X144844762Y-101344676D01*
X144844762Y-101344676D02*
X144844762Y-101458961D01*
X144844762Y-101458961D02*
X144806666Y-101535152D01*
X144806666Y-101535152D02*
X144768571Y-101573247D01*
X144768571Y-101573247D02*
X144692381Y-101611342D01*
X144692381Y-101611342D02*
X144387619Y-101611342D01*
X145606666Y-101992295D02*
X145149523Y-101992295D01*
X145378095Y-101992295D02*
X145378095Y-101192295D01*
X145378095Y-101192295D02*
X145301904Y-101306580D01*
X145301904Y-101306580D02*
X145225714Y-101382771D01*
X145225714Y-101382771D02*
X145149523Y-101420866D01*
X146101905Y-101192295D02*
X146178095Y-101192295D01*
X146178095Y-101192295D02*
X146254286Y-101230390D01*
X146254286Y-101230390D02*
X146292381Y-101268485D01*
X146292381Y-101268485D02*
X146330476Y-101344676D01*
X146330476Y-101344676D02*
X146368571Y-101497057D01*
X146368571Y-101497057D02*
X146368571Y-101687533D01*
X146368571Y-101687533D02*
X146330476Y-101839914D01*
X146330476Y-101839914D02*
X146292381Y-101916104D01*
X146292381Y-101916104D02*
X146254286Y-101954200D01*
X146254286Y-101954200D02*
X146178095Y-101992295D01*
X146178095Y-101992295D02*
X146101905Y-101992295D01*
X146101905Y-101992295D02*
X146025714Y-101954200D01*
X146025714Y-101954200D02*
X145987619Y-101916104D01*
X145987619Y-101916104D02*
X145949524Y-101839914D01*
X145949524Y-101839914D02*
X145911428Y-101687533D01*
X145911428Y-101687533D02*
X145911428Y-101497057D01*
X145911428Y-101497057D02*
X145949524Y-101344676D01*
X145949524Y-101344676D02*
X145987619Y-101268485D01*
X145987619Y-101268485D02*
X146025714Y-101230390D01*
X146025714Y-101230390D02*
X146101905Y-101192295D01*
X143130476Y-104532295D02*
X142749524Y-104532295D01*
X142749524Y-104532295D02*
X142749524Y-103732295D01*
X143397143Y-104227533D02*
X144006667Y-104227533D01*
X144387619Y-104532295D02*
X144387619Y-103732295D01*
X144387619Y-103732295D02*
X144692381Y-103732295D01*
X144692381Y-103732295D02*
X144768571Y-103770390D01*
X144768571Y-103770390D02*
X144806666Y-103808485D01*
X144806666Y-103808485D02*
X144844762Y-103884676D01*
X144844762Y-103884676D02*
X144844762Y-103998961D01*
X144844762Y-103998961D02*
X144806666Y-104075152D01*
X144806666Y-104075152D02*
X144768571Y-104113247D01*
X144768571Y-104113247D02*
X144692381Y-104151342D01*
X144692381Y-104151342D02*
X144387619Y-104151342D01*
X145606666Y-104532295D02*
X145149523Y-104532295D01*
X145378095Y-104532295D02*
X145378095Y-103732295D01*
X145378095Y-103732295D02*
X145301904Y-103846580D01*
X145301904Y-103846580D02*
X145225714Y-103922771D01*
X145225714Y-103922771D02*
X145149523Y-103960866D01*
X146368571Y-104532295D02*
X145911428Y-104532295D01*
X146140000Y-104532295D02*
X146140000Y-103732295D01*
X146140000Y-103732295D02*
X146063809Y-103846580D01*
X146063809Y-103846580D02*
X145987619Y-103922771D01*
X145987619Y-103922771D02*
X145911428Y-103960866D01*
X143130476Y-107072295D02*
X142749524Y-107072295D01*
X142749524Y-107072295D02*
X142749524Y-106272295D01*
X143397143Y-106767533D02*
X144006667Y-106767533D01*
X144387619Y-107072295D02*
X144387619Y-106272295D01*
X144387619Y-106272295D02*
X144692381Y-106272295D01*
X144692381Y-106272295D02*
X144768571Y-106310390D01*
X144768571Y-106310390D02*
X144806666Y-106348485D01*
X144806666Y-106348485D02*
X144844762Y-106424676D01*
X144844762Y-106424676D02*
X144844762Y-106538961D01*
X144844762Y-106538961D02*
X144806666Y-106615152D01*
X144806666Y-106615152D02*
X144768571Y-106653247D01*
X144768571Y-106653247D02*
X144692381Y-106691342D01*
X144692381Y-106691342D02*
X144387619Y-106691342D01*
X145606666Y-107072295D02*
X145149523Y-107072295D01*
X145378095Y-107072295D02*
X145378095Y-106272295D01*
X145378095Y-106272295D02*
X145301904Y-106386580D01*
X145301904Y-106386580D02*
X145225714Y-106462771D01*
X145225714Y-106462771D02*
X145149523Y-106500866D01*
X145911428Y-106348485D02*
X145949524Y-106310390D01*
X145949524Y-106310390D02*
X146025714Y-106272295D01*
X146025714Y-106272295D02*
X146216190Y-106272295D01*
X146216190Y-106272295D02*
X146292381Y-106310390D01*
X146292381Y-106310390D02*
X146330476Y-106348485D01*
X146330476Y-106348485D02*
X146368571Y-106424676D01*
X146368571Y-106424676D02*
X146368571Y-106500866D01*
X146368571Y-106500866D02*
X146330476Y-106615152D01*
X146330476Y-106615152D02*
X145873333Y-107072295D01*
X145873333Y-107072295D02*
X146368571Y-107072295D01*
X143130476Y-109612295D02*
X142749524Y-109612295D01*
X142749524Y-109612295D02*
X142749524Y-108812295D01*
X143397143Y-109307533D02*
X144006667Y-109307533D01*
X144387619Y-109612295D02*
X144387619Y-108812295D01*
X144387619Y-108812295D02*
X144692381Y-108812295D01*
X144692381Y-108812295D02*
X144768571Y-108850390D01*
X144768571Y-108850390D02*
X144806666Y-108888485D01*
X144806666Y-108888485D02*
X144844762Y-108964676D01*
X144844762Y-108964676D02*
X144844762Y-109078961D01*
X144844762Y-109078961D02*
X144806666Y-109155152D01*
X144806666Y-109155152D02*
X144768571Y-109193247D01*
X144768571Y-109193247D02*
X144692381Y-109231342D01*
X144692381Y-109231342D02*
X144387619Y-109231342D01*
X145606666Y-109612295D02*
X145149523Y-109612295D01*
X145378095Y-109612295D02*
X145378095Y-108812295D01*
X145378095Y-108812295D02*
X145301904Y-108926580D01*
X145301904Y-108926580D02*
X145225714Y-109002771D01*
X145225714Y-109002771D02*
X145149523Y-109040866D01*
X145873333Y-108812295D02*
X146368571Y-108812295D01*
X146368571Y-108812295D02*
X146101905Y-109117057D01*
X146101905Y-109117057D02*
X146216190Y-109117057D01*
X146216190Y-109117057D02*
X146292381Y-109155152D01*
X146292381Y-109155152D02*
X146330476Y-109193247D01*
X146330476Y-109193247D02*
X146368571Y-109269438D01*
X146368571Y-109269438D02*
X146368571Y-109459914D01*
X146368571Y-109459914D02*
X146330476Y-109536104D01*
X146330476Y-109536104D02*
X146292381Y-109574200D01*
X146292381Y-109574200D02*
X146216190Y-109612295D01*
X146216190Y-109612295D02*
X145987619Y-109612295D01*
X145987619Y-109612295D02*
X145911428Y-109574200D01*
X145911428Y-109574200D02*
X145873333Y-109536104D01*
X175011429Y-79132295D02*
X174744762Y-78751342D01*
X174554286Y-79132295D02*
X174554286Y-78332295D01*
X174554286Y-78332295D02*
X174859048Y-78332295D01*
X174859048Y-78332295D02*
X174935238Y-78370390D01*
X174935238Y-78370390D02*
X174973333Y-78408485D01*
X174973333Y-78408485D02*
X175011429Y-78484676D01*
X175011429Y-78484676D02*
X175011429Y-78598961D01*
X175011429Y-78598961D02*
X174973333Y-78675152D01*
X174973333Y-78675152D02*
X174935238Y-78713247D01*
X174935238Y-78713247D02*
X174859048Y-78751342D01*
X174859048Y-78751342D02*
X174554286Y-78751342D01*
X175354286Y-78827533D02*
X175963810Y-78827533D01*
X176344762Y-79132295D02*
X176344762Y-78332295D01*
X176344762Y-78332295D02*
X176649524Y-78332295D01*
X176649524Y-78332295D02*
X176725714Y-78370390D01*
X176725714Y-78370390D02*
X176763809Y-78408485D01*
X176763809Y-78408485D02*
X176801905Y-78484676D01*
X176801905Y-78484676D02*
X176801905Y-78598961D01*
X176801905Y-78598961D02*
X176763809Y-78675152D01*
X176763809Y-78675152D02*
X176725714Y-78713247D01*
X176725714Y-78713247D02*
X176649524Y-78751342D01*
X176649524Y-78751342D02*
X176344762Y-78751342D01*
X177563809Y-79132295D02*
X177106666Y-79132295D01*
X177335238Y-79132295D02*
X177335238Y-78332295D01*
X177335238Y-78332295D02*
X177259047Y-78446580D01*
X177259047Y-78446580D02*
X177182857Y-78522771D01*
X177182857Y-78522771D02*
X177106666Y-78560866D01*
X175011429Y-81672295D02*
X174744762Y-81291342D01*
X174554286Y-81672295D02*
X174554286Y-80872295D01*
X174554286Y-80872295D02*
X174859048Y-80872295D01*
X174859048Y-80872295D02*
X174935238Y-80910390D01*
X174935238Y-80910390D02*
X174973333Y-80948485D01*
X174973333Y-80948485D02*
X175011429Y-81024676D01*
X175011429Y-81024676D02*
X175011429Y-81138961D01*
X175011429Y-81138961D02*
X174973333Y-81215152D01*
X174973333Y-81215152D02*
X174935238Y-81253247D01*
X174935238Y-81253247D02*
X174859048Y-81291342D01*
X174859048Y-81291342D02*
X174554286Y-81291342D01*
X175354286Y-81367533D02*
X175963810Y-81367533D01*
X176344762Y-81672295D02*
X176344762Y-80872295D01*
X176344762Y-80872295D02*
X176649524Y-80872295D01*
X176649524Y-80872295D02*
X176725714Y-80910390D01*
X176725714Y-80910390D02*
X176763809Y-80948485D01*
X176763809Y-80948485D02*
X176801905Y-81024676D01*
X176801905Y-81024676D02*
X176801905Y-81138961D01*
X176801905Y-81138961D02*
X176763809Y-81215152D01*
X176763809Y-81215152D02*
X176725714Y-81253247D01*
X176725714Y-81253247D02*
X176649524Y-81291342D01*
X176649524Y-81291342D02*
X176344762Y-81291342D01*
X177106666Y-80948485D02*
X177144762Y-80910390D01*
X177144762Y-80910390D02*
X177220952Y-80872295D01*
X177220952Y-80872295D02*
X177411428Y-80872295D01*
X177411428Y-80872295D02*
X177487619Y-80910390D01*
X177487619Y-80910390D02*
X177525714Y-80948485D01*
X177525714Y-80948485D02*
X177563809Y-81024676D01*
X177563809Y-81024676D02*
X177563809Y-81100866D01*
X177563809Y-81100866D02*
X177525714Y-81215152D01*
X177525714Y-81215152D02*
X177068571Y-81672295D01*
X177068571Y-81672295D02*
X177563809Y-81672295D01*
X175011429Y-84212295D02*
X174744762Y-83831342D01*
X174554286Y-84212295D02*
X174554286Y-83412295D01*
X174554286Y-83412295D02*
X174859048Y-83412295D01*
X174859048Y-83412295D02*
X174935238Y-83450390D01*
X174935238Y-83450390D02*
X174973333Y-83488485D01*
X174973333Y-83488485D02*
X175011429Y-83564676D01*
X175011429Y-83564676D02*
X175011429Y-83678961D01*
X175011429Y-83678961D02*
X174973333Y-83755152D01*
X174973333Y-83755152D02*
X174935238Y-83793247D01*
X174935238Y-83793247D02*
X174859048Y-83831342D01*
X174859048Y-83831342D02*
X174554286Y-83831342D01*
X175354286Y-83907533D02*
X175963810Y-83907533D01*
X176344762Y-84212295D02*
X176344762Y-83412295D01*
X176344762Y-83412295D02*
X176649524Y-83412295D01*
X176649524Y-83412295D02*
X176725714Y-83450390D01*
X176725714Y-83450390D02*
X176763809Y-83488485D01*
X176763809Y-83488485D02*
X176801905Y-83564676D01*
X176801905Y-83564676D02*
X176801905Y-83678961D01*
X176801905Y-83678961D02*
X176763809Y-83755152D01*
X176763809Y-83755152D02*
X176725714Y-83793247D01*
X176725714Y-83793247D02*
X176649524Y-83831342D01*
X176649524Y-83831342D02*
X176344762Y-83831342D01*
X177068571Y-83412295D02*
X177563809Y-83412295D01*
X177563809Y-83412295D02*
X177297143Y-83717057D01*
X177297143Y-83717057D02*
X177411428Y-83717057D01*
X177411428Y-83717057D02*
X177487619Y-83755152D01*
X177487619Y-83755152D02*
X177525714Y-83793247D01*
X177525714Y-83793247D02*
X177563809Y-83869438D01*
X177563809Y-83869438D02*
X177563809Y-84059914D01*
X177563809Y-84059914D02*
X177525714Y-84136104D01*
X177525714Y-84136104D02*
X177487619Y-84174200D01*
X177487619Y-84174200D02*
X177411428Y-84212295D01*
X177411428Y-84212295D02*
X177182857Y-84212295D01*
X177182857Y-84212295D02*
X177106666Y-84174200D01*
X177106666Y-84174200D02*
X177068571Y-84136104D01*
X175011429Y-86752295D02*
X174744762Y-86371342D01*
X174554286Y-86752295D02*
X174554286Y-85952295D01*
X174554286Y-85952295D02*
X174859048Y-85952295D01*
X174859048Y-85952295D02*
X174935238Y-85990390D01*
X174935238Y-85990390D02*
X174973333Y-86028485D01*
X174973333Y-86028485D02*
X175011429Y-86104676D01*
X175011429Y-86104676D02*
X175011429Y-86218961D01*
X175011429Y-86218961D02*
X174973333Y-86295152D01*
X174973333Y-86295152D02*
X174935238Y-86333247D01*
X174935238Y-86333247D02*
X174859048Y-86371342D01*
X174859048Y-86371342D02*
X174554286Y-86371342D01*
X175354286Y-86447533D02*
X175963810Y-86447533D01*
X176344762Y-86752295D02*
X176344762Y-85952295D01*
X176344762Y-85952295D02*
X176649524Y-85952295D01*
X176649524Y-85952295D02*
X176725714Y-85990390D01*
X176725714Y-85990390D02*
X176763809Y-86028485D01*
X176763809Y-86028485D02*
X176801905Y-86104676D01*
X176801905Y-86104676D02*
X176801905Y-86218961D01*
X176801905Y-86218961D02*
X176763809Y-86295152D01*
X176763809Y-86295152D02*
X176725714Y-86333247D01*
X176725714Y-86333247D02*
X176649524Y-86371342D01*
X176649524Y-86371342D02*
X176344762Y-86371342D01*
X177487619Y-86218961D02*
X177487619Y-86752295D01*
X177297143Y-85914200D02*
X177106666Y-86485628D01*
X177106666Y-86485628D02*
X177601905Y-86485628D01*
X175011429Y-89292295D02*
X174744762Y-88911342D01*
X174554286Y-89292295D02*
X174554286Y-88492295D01*
X174554286Y-88492295D02*
X174859048Y-88492295D01*
X174859048Y-88492295D02*
X174935238Y-88530390D01*
X174935238Y-88530390D02*
X174973333Y-88568485D01*
X174973333Y-88568485D02*
X175011429Y-88644676D01*
X175011429Y-88644676D02*
X175011429Y-88758961D01*
X175011429Y-88758961D02*
X174973333Y-88835152D01*
X174973333Y-88835152D02*
X174935238Y-88873247D01*
X174935238Y-88873247D02*
X174859048Y-88911342D01*
X174859048Y-88911342D02*
X174554286Y-88911342D01*
X175354286Y-88987533D02*
X175963810Y-88987533D01*
X176344762Y-89292295D02*
X176344762Y-88492295D01*
X176344762Y-88492295D02*
X176649524Y-88492295D01*
X176649524Y-88492295D02*
X176725714Y-88530390D01*
X176725714Y-88530390D02*
X176763809Y-88568485D01*
X176763809Y-88568485D02*
X176801905Y-88644676D01*
X176801905Y-88644676D02*
X176801905Y-88758961D01*
X176801905Y-88758961D02*
X176763809Y-88835152D01*
X176763809Y-88835152D02*
X176725714Y-88873247D01*
X176725714Y-88873247D02*
X176649524Y-88911342D01*
X176649524Y-88911342D02*
X176344762Y-88911342D01*
X177525714Y-88492295D02*
X177144762Y-88492295D01*
X177144762Y-88492295D02*
X177106666Y-88873247D01*
X177106666Y-88873247D02*
X177144762Y-88835152D01*
X177144762Y-88835152D02*
X177220952Y-88797057D01*
X177220952Y-88797057D02*
X177411428Y-88797057D01*
X177411428Y-88797057D02*
X177487619Y-88835152D01*
X177487619Y-88835152D02*
X177525714Y-88873247D01*
X177525714Y-88873247D02*
X177563809Y-88949438D01*
X177563809Y-88949438D02*
X177563809Y-89139914D01*
X177563809Y-89139914D02*
X177525714Y-89216104D01*
X177525714Y-89216104D02*
X177487619Y-89254200D01*
X177487619Y-89254200D02*
X177411428Y-89292295D01*
X177411428Y-89292295D02*
X177220952Y-89292295D01*
X177220952Y-89292295D02*
X177144762Y-89254200D01*
X177144762Y-89254200D02*
X177106666Y-89216104D01*
X175011429Y-91832295D02*
X174744762Y-91451342D01*
X174554286Y-91832295D02*
X174554286Y-91032295D01*
X174554286Y-91032295D02*
X174859048Y-91032295D01*
X174859048Y-91032295D02*
X174935238Y-91070390D01*
X174935238Y-91070390D02*
X174973333Y-91108485D01*
X174973333Y-91108485D02*
X175011429Y-91184676D01*
X175011429Y-91184676D02*
X175011429Y-91298961D01*
X175011429Y-91298961D02*
X174973333Y-91375152D01*
X174973333Y-91375152D02*
X174935238Y-91413247D01*
X174935238Y-91413247D02*
X174859048Y-91451342D01*
X174859048Y-91451342D02*
X174554286Y-91451342D01*
X175354286Y-91527533D02*
X175963810Y-91527533D01*
X176344762Y-91832295D02*
X176344762Y-91032295D01*
X176344762Y-91032295D02*
X176649524Y-91032295D01*
X176649524Y-91032295D02*
X176725714Y-91070390D01*
X176725714Y-91070390D02*
X176763809Y-91108485D01*
X176763809Y-91108485D02*
X176801905Y-91184676D01*
X176801905Y-91184676D02*
X176801905Y-91298961D01*
X176801905Y-91298961D02*
X176763809Y-91375152D01*
X176763809Y-91375152D02*
X176725714Y-91413247D01*
X176725714Y-91413247D02*
X176649524Y-91451342D01*
X176649524Y-91451342D02*
X176344762Y-91451342D01*
X177487619Y-91032295D02*
X177335238Y-91032295D01*
X177335238Y-91032295D02*
X177259047Y-91070390D01*
X177259047Y-91070390D02*
X177220952Y-91108485D01*
X177220952Y-91108485D02*
X177144762Y-91222771D01*
X177144762Y-91222771D02*
X177106666Y-91375152D01*
X177106666Y-91375152D02*
X177106666Y-91679914D01*
X177106666Y-91679914D02*
X177144762Y-91756104D01*
X177144762Y-91756104D02*
X177182857Y-91794200D01*
X177182857Y-91794200D02*
X177259047Y-91832295D01*
X177259047Y-91832295D02*
X177411428Y-91832295D01*
X177411428Y-91832295D02*
X177487619Y-91794200D01*
X177487619Y-91794200D02*
X177525714Y-91756104D01*
X177525714Y-91756104D02*
X177563809Y-91679914D01*
X177563809Y-91679914D02*
X177563809Y-91489438D01*
X177563809Y-91489438D02*
X177525714Y-91413247D01*
X177525714Y-91413247D02*
X177487619Y-91375152D01*
X177487619Y-91375152D02*
X177411428Y-91337057D01*
X177411428Y-91337057D02*
X177259047Y-91337057D01*
X177259047Y-91337057D02*
X177182857Y-91375152D01*
X177182857Y-91375152D02*
X177144762Y-91413247D01*
X177144762Y-91413247D02*
X177106666Y-91489438D01*
X175011429Y-94372295D02*
X174744762Y-93991342D01*
X174554286Y-94372295D02*
X174554286Y-93572295D01*
X174554286Y-93572295D02*
X174859048Y-93572295D01*
X174859048Y-93572295D02*
X174935238Y-93610390D01*
X174935238Y-93610390D02*
X174973333Y-93648485D01*
X174973333Y-93648485D02*
X175011429Y-93724676D01*
X175011429Y-93724676D02*
X175011429Y-93838961D01*
X175011429Y-93838961D02*
X174973333Y-93915152D01*
X174973333Y-93915152D02*
X174935238Y-93953247D01*
X174935238Y-93953247D02*
X174859048Y-93991342D01*
X174859048Y-93991342D02*
X174554286Y-93991342D01*
X175354286Y-94067533D02*
X175963810Y-94067533D01*
X176344762Y-94372295D02*
X176344762Y-93572295D01*
X176344762Y-93572295D02*
X176649524Y-93572295D01*
X176649524Y-93572295D02*
X176725714Y-93610390D01*
X176725714Y-93610390D02*
X176763809Y-93648485D01*
X176763809Y-93648485D02*
X176801905Y-93724676D01*
X176801905Y-93724676D02*
X176801905Y-93838961D01*
X176801905Y-93838961D02*
X176763809Y-93915152D01*
X176763809Y-93915152D02*
X176725714Y-93953247D01*
X176725714Y-93953247D02*
X176649524Y-93991342D01*
X176649524Y-93991342D02*
X176344762Y-93991342D01*
X177068571Y-93572295D02*
X177601905Y-93572295D01*
X177601905Y-93572295D02*
X177259047Y-94372295D01*
X175011429Y-96912295D02*
X174744762Y-96531342D01*
X174554286Y-96912295D02*
X174554286Y-96112295D01*
X174554286Y-96112295D02*
X174859048Y-96112295D01*
X174859048Y-96112295D02*
X174935238Y-96150390D01*
X174935238Y-96150390D02*
X174973333Y-96188485D01*
X174973333Y-96188485D02*
X175011429Y-96264676D01*
X175011429Y-96264676D02*
X175011429Y-96378961D01*
X175011429Y-96378961D02*
X174973333Y-96455152D01*
X174973333Y-96455152D02*
X174935238Y-96493247D01*
X174935238Y-96493247D02*
X174859048Y-96531342D01*
X174859048Y-96531342D02*
X174554286Y-96531342D01*
X175354286Y-96607533D02*
X175963810Y-96607533D01*
X176344762Y-96912295D02*
X176344762Y-96112295D01*
X176344762Y-96112295D02*
X176649524Y-96112295D01*
X176649524Y-96112295D02*
X176725714Y-96150390D01*
X176725714Y-96150390D02*
X176763809Y-96188485D01*
X176763809Y-96188485D02*
X176801905Y-96264676D01*
X176801905Y-96264676D02*
X176801905Y-96378961D01*
X176801905Y-96378961D02*
X176763809Y-96455152D01*
X176763809Y-96455152D02*
X176725714Y-96493247D01*
X176725714Y-96493247D02*
X176649524Y-96531342D01*
X176649524Y-96531342D02*
X176344762Y-96531342D01*
X177259047Y-96455152D02*
X177182857Y-96417057D01*
X177182857Y-96417057D02*
X177144762Y-96378961D01*
X177144762Y-96378961D02*
X177106666Y-96302771D01*
X177106666Y-96302771D02*
X177106666Y-96264676D01*
X177106666Y-96264676D02*
X177144762Y-96188485D01*
X177144762Y-96188485D02*
X177182857Y-96150390D01*
X177182857Y-96150390D02*
X177259047Y-96112295D01*
X177259047Y-96112295D02*
X177411428Y-96112295D01*
X177411428Y-96112295D02*
X177487619Y-96150390D01*
X177487619Y-96150390D02*
X177525714Y-96188485D01*
X177525714Y-96188485D02*
X177563809Y-96264676D01*
X177563809Y-96264676D02*
X177563809Y-96302771D01*
X177563809Y-96302771D02*
X177525714Y-96378961D01*
X177525714Y-96378961D02*
X177487619Y-96417057D01*
X177487619Y-96417057D02*
X177411428Y-96455152D01*
X177411428Y-96455152D02*
X177259047Y-96455152D01*
X177259047Y-96455152D02*
X177182857Y-96493247D01*
X177182857Y-96493247D02*
X177144762Y-96531342D01*
X177144762Y-96531342D02*
X177106666Y-96607533D01*
X177106666Y-96607533D02*
X177106666Y-96759914D01*
X177106666Y-96759914D02*
X177144762Y-96836104D01*
X177144762Y-96836104D02*
X177182857Y-96874200D01*
X177182857Y-96874200D02*
X177259047Y-96912295D01*
X177259047Y-96912295D02*
X177411428Y-96912295D01*
X177411428Y-96912295D02*
X177487619Y-96874200D01*
X177487619Y-96874200D02*
X177525714Y-96836104D01*
X177525714Y-96836104D02*
X177563809Y-96759914D01*
X177563809Y-96759914D02*
X177563809Y-96607533D01*
X177563809Y-96607533D02*
X177525714Y-96531342D01*
X177525714Y-96531342D02*
X177487619Y-96493247D01*
X177487619Y-96493247D02*
X177411428Y-96455152D01*
X175011429Y-99452295D02*
X174744762Y-99071342D01*
X174554286Y-99452295D02*
X174554286Y-98652295D01*
X174554286Y-98652295D02*
X174859048Y-98652295D01*
X174859048Y-98652295D02*
X174935238Y-98690390D01*
X174935238Y-98690390D02*
X174973333Y-98728485D01*
X174973333Y-98728485D02*
X175011429Y-98804676D01*
X175011429Y-98804676D02*
X175011429Y-98918961D01*
X175011429Y-98918961D02*
X174973333Y-98995152D01*
X174973333Y-98995152D02*
X174935238Y-99033247D01*
X174935238Y-99033247D02*
X174859048Y-99071342D01*
X174859048Y-99071342D02*
X174554286Y-99071342D01*
X175354286Y-99147533D02*
X175963810Y-99147533D01*
X176344762Y-99452295D02*
X176344762Y-98652295D01*
X176344762Y-98652295D02*
X176649524Y-98652295D01*
X176649524Y-98652295D02*
X176725714Y-98690390D01*
X176725714Y-98690390D02*
X176763809Y-98728485D01*
X176763809Y-98728485D02*
X176801905Y-98804676D01*
X176801905Y-98804676D02*
X176801905Y-98918961D01*
X176801905Y-98918961D02*
X176763809Y-98995152D01*
X176763809Y-98995152D02*
X176725714Y-99033247D01*
X176725714Y-99033247D02*
X176649524Y-99071342D01*
X176649524Y-99071342D02*
X176344762Y-99071342D01*
X177182857Y-99452295D02*
X177335238Y-99452295D01*
X177335238Y-99452295D02*
X177411428Y-99414200D01*
X177411428Y-99414200D02*
X177449524Y-99376104D01*
X177449524Y-99376104D02*
X177525714Y-99261819D01*
X177525714Y-99261819D02*
X177563809Y-99109438D01*
X177563809Y-99109438D02*
X177563809Y-98804676D01*
X177563809Y-98804676D02*
X177525714Y-98728485D01*
X177525714Y-98728485D02*
X177487619Y-98690390D01*
X177487619Y-98690390D02*
X177411428Y-98652295D01*
X177411428Y-98652295D02*
X177259047Y-98652295D01*
X177259047Y-98652295D02*
X177182857Y-98690390D01*
X177182857Y-98690390D02*
X177144762Y-98728485D01*
X177144762Y-98728485D02*
X177106666Y-98804676D01*
X177106666Y-98804676D02*
X177106666Y-98995152D01*
X177106666Y-98995152D02*
X177144762Y-99071342D01*
X177144762Y-99071342D02*
X177182857Y-99109438D01*
X177182857Y-99109438D02*
X177259047Y-99147533D01*
X177259047Y-99147533D02*
X177411428Y-99147533D01*
X177411428Y-99147533D02*
X177487619Y-99109438D01*
X177487619Y-99109438D02*
X177525714Y-99071342D01*
X177525714Y-99071342D02*
X177563809Y-98995152D01*
X174630476Y-101992295D02*
X174363809Y-101611342D01*
X174173333Y-101992295D02*
X174173333Y-101192295D01*
X174173333Y-101192295D02*
X174478095Y-101192295D01*
X174478095Y-101192295D02*
X174554285Y-101230390D01*
X174554285Y-101230390D02*
X174592380Y-101268485D01*
X174592380Y-101268485D02*
X174630476Y-101344676D01*
X174630476Y-101344676D02*
X174630476Y-101458961D01*
X174630476Y-101458961D02*
X174592380Y-101535152D01*
X174592380Y-101535152D02*
X174554285Y-101573247D01*
X174554285Y-101573247D02*
X174478095Y-101611342D01*
X174478095Y-101611342D02*
X174173333Y-101611342D01*
X174973333Y-101687533D02*
X175582857Y-101687533D01*
X175963809Y-101992295D02*
X175963809Y-101192295D01*
X175963809Y-101192295D02*
X176268571Y-101192295D01*
X176268571Y-101192295D02*
X176344761Y-101230390D01*
X176344761Y-101230390D02*
X176382856Y-101268485D01*
X176382856Y-101268485D02*
X176420952Y-101344676D01*
X176420952Y-101344676D02*
X176420952Y-101458961D01*
X176420952Y-101458961D02*
X176382856Y-101535152D01*
X176382856Y-101535152D02*
X176344761Y-101573247D01*
X176344761Y-101573247D02*
X176268571Y-101611342D01*
X176268571Y-101611342D02*
X175963809Y-101611342D01*
X177182856Y-101992295D02*
X176725713Y-101992295D01*
X176954285Y-101992295D02*
X176954285Y-101192295D01*
X176954285Y-101192295D02*
X176878094Y-101306580D01*
X176878094Y-101306580D02*
X176801904Y-101382771D01*
X176801904Y-101382771D02*
X176725713Y-101420866D01*
X177678095Y-101192295D02*
X177754285Y-101192295D01*
X177754285Y-101192295D02*
X177830476Y-101230390D01*
X177830476Y-101230390D02*
X177868571Y-101268485D01*
X177868571Y-101268485D02*
X177906666Y-101344676D01*
X177906666Y-101344676D02*
X177944761Y-101497057D01*
X177944761Y-101497057D02*
X177944761Y-101687533D01*
X177944761Y-101687533D02*
X177906666Y-101839914D01*
X177906666Y-101839914D02*
X177868571Y-101916104D01*
X177868571Y-101916104D02*
X177830476Y-101954200D01*
X177830476Y-101954200D02*
X177754285Y-101992295D01*
X177754285Y-101992295D02*
X177678095Y-101992295D01*
X177678095Y-101992295D02*
X177601904Y-101954200D01*
X177601904Y-101954200D02*
X177563809Y-101916104D01*
X177563809Y-101916104D02*
X177525714Y-101839914D01*
X177525714Y-101839914D02*
X177487618Y-101687533D01*
X177487618Y-101687533D02*
X177487618Y-101497057D01*
X177487618Y-101497057D02*
X177525714Y-101344676D01*
X177525714Y-101344676D02*
X177563809Y-101268485D01*
X177563809Y-101268485D02*
X177601904Y-101230390D01*
X177601904Y-101230390D02*
X177678095Y-101192295D01*
X174630476Y-104532295D02*
X174363809Y-104151342D01*
X174173333Y-104532295D02*
X174173333Y-103732295D01*
X174173333Y-103732295D02*
X174478095Y-103732295D01*
X174478095Y-103732295D02*
X174554285Y-103770390D01*
X174554285Y-103770390D02*
X174592380Y-103808485D01*
X174592380Y-103808485D02*
X174630476Y-103884676D01*
X174630476Y-103884676D02*
X174630476Y-103998961D01*
X174630476Y-103998961D02*
X174592380Y-104075152D01*
X174592380Y-104075152D02*
X174554285Y-104113247D01*
X174554285Y-104113247D02*
X174478095Y-104151342D01*
X174478095Y-104151342D02*
X174173333Y-104151342D01*
X174973333Y-104227533D02*
X175582857Y-104227533D01*
X175963809Y-104532295D02*
X175963809Y-103732295D01*
X175963809Y-103732295D02*
X176268571Y-103732295D01*
X176268571Y-103732295D02*
X176344761Y-103770390D01*
X176344761Y-103770390D02*
X176382856Y-103808485D01*
X176382856Y-103808485D02*
X176420952Y-103884676D01*
X176420952Y-103884676D02*
X176420952Y-103998961D01*
X176420952Y-103998961D02*
X176382856Y-104075152D01*
X176382856Y-104075152D02*
X176344761Y-104113247D01*
X176344761Y-104113247D02*
X176268571Y-104151342D01*
X176268571Y-104151342D02*
X175963809Y-104151342D01*
X177182856Y-104532295D02*
X176725713Y-104532295D01*
X176954285Y-104532295D02*
X176954285Y-103732295D01*
X176954285Y-103732295D02*
X176878094Y-103846580D01*
X176878094Y-103846580D02*
X176801904Y-103922771D01*
X176801904Y-103922771D02*
X176725713Y-103960866D01*
X177944761Y-104532295D02*
X177487618Y-104532295D01*
X177716190Y-104532295D02*
X177716190Y-103732295D01*
X177716190Y-103732295D02*
X177639999Y-103846580D01*
X177639999Y-103846580D02*
X177563809Y-103922771D01*
X177563809Y-103922771D02*
X177487618Y-103960866D01*
X174630476Y-107072295D02*
X174363809Y-106691342D01*
X174173333Y-107072295D02*
X174173333Y-106272295D01*
X174173333Y-106272295D02*
X174478095Y-106272295D01*
X174478095Y-106272295D02*
X174554285Y-106310390D01*
X174554285Y-106310390D02*
X174592380Y-106348485D01*
X174592380Y-106348485D02*
X174630476Y-106424676D01*
X174630476Y-106424676D02*
X174630476Y-106538961D01*
X174630476Y-106538961D02*
X174592380Y-106615152D01*
X174592380Y-106615152D02*
X174554285Y-106653247D01*
X174554285Y-106653247D02*
X174478095Y-106691342D01*
X174478095Y-106691342D02*
X174173333Y-106691342D01*
X174973333Y-106767533D02*
X175582857Y-106767533D01*
X175963809Y-107072295D02*
X175963809Y-106272295D01*
X175963809Y-106272295D02*
X176268571Y-106272295D01*
X176268571Y-106272295D02*
X176344761Y-106310390D01*
X176344761Y-106310390D02*
X176382856Y-106348485D01*
X176382856Y-106348485D02*
X176420952Y-106424676D01*
X176420952Y-106424676D02*
X176420952Y-106538961D01*
X176420952Y-106538961D02*
X176382856Y-106615152D01*
X176382856Y-106615152D02*
X176344761Y-106653247D01*
X176344761Y-106653247D02*
X176268571Y-106691342D01*
X176268571Y-106691342D02*
X175963809Y-106691342D01*
X177182856Y-107072295D02*
X176725713Y-107072295D01*
X176954285Y-107072295D02*
X176954285Y-106272295D01*
X176954285Y-106272295D02*
X176878094Y-106386580D01*
X176878094Y-106386580D02*
X176801904Y-106462771D01*
X176801904Y-106462771D02*
X176725713Y-106500866D01*
X177487618Y-106348485D02*
X177525714Y-106310390D01*
X177525714Y-106310390D02*
X177601904Y-106272295D01*
X177601904Y-106272295D02*
X177792380Y-106272295D01*
X177792380Y-106272295D02*
X177868571Y-106310390D01*
X177868571Y-106310390D02*
X177906666Y-106348485D01*
X177906666Y-106348485D02*
X177944761Y-106424676D01*
X177944761Y-106424676D02*
X177944761Y-106500866D01*
X177944761Y-106500866D02*
X177906666Y-106615152D01*
X177906666Y-106615152D02*
X177449523Y-107072295D01*
X177449523Y-107072295D02*
X177944761Y-107072295D01*
X174630476Y-109612295D02*
X174363809Y-109231342D01*
X174173333Y-109612295D02*
X174173333Y-108812295D01*
X174173333Y-108812295D02*
X174478095Y-108812295D01*
X174478095Y-108812295D02*
X174554285Y-108850390D01*
X174554285Y-108850390D02*
X174592380Y-108888485D01*
X174592380Y-108888485D02*
X174630476Y-108964676D01*
X174630476Y-108964676D02*
X174630476Y-109078961D01*
X174630476Y-109078961D02*
X174592380Y-109155152D01*
X174592380Y-109155152D02*
X174554285Y-109193247D01*
X174554285Y-109193247D02*
X174478095Y-109231342D01*
X174478095Y-109231342D02*
X174173333Y-109231342D01*
X174973333Y-109307533D02*
X175582857Y-109307533D01*
X175963809Y-109612295D02*
X175963809Y-108812295D01*
X175963809Y-108812295D02*
X176268571Y-108812295D01*
X176268571Y-108812295D02*
X176344761Y-108850390D01*
X176344761Y-108850390D02*
X176382856Y-108888485D01*
X176382856Y-108888485D02*
X176420952Y-108964676D01*
X176420952Y-108964676D02*
X176420952Y-109078961D01*
X176420952Y-109078961D02*
X176382856Y-109155152D01*
X176382856Y-109155152D02*
X176344761Y-109193247D01*
X176344761Y-109193247D02*
X176268571Y-109231342D01*
X176268571Y-109231342D02*
X175963809Y-109231342D01*
X177182856Y-109612295D02*
X176725713Y-109612295D01*
X176954285Y-109612295D02*
X176954285Y-108812295D01*
X176954285Y-108812295D02*
X176878094Y-108926580D01*
X176878094Y-108926580D02*
X176801904Y-109002771D01*
X176801904Y-109002771D02*
X176725713Y-109040866D01*
X177449523Y-108812295D02*
X177944761Y-108812295D01*
X177944761Y-108812295D02*
X177678095Y-109117057D01*
X177678095Y-109117057D02*
X177792380Y-109117057D01*
X177792380Y-109117057D02*
X177868571Y-109155152D01*
X177868571Y-109155152D02*
X177906666Y-109193247D01*
X177906666Y-109193247D02*
X177944761Y-109269438D01*
X177944761Y-109269438D02*
X177944761Y-109459914D01*
X177944761Y-109459914D02*
X177906666Y-109536104D01*
X177906666Y-109536104D02*
X177868571Y-109574200D01*
X177868571Y-109574200D02*
X177792380Y-109612295D01*
X177792380Y-109612295D02*
X177563809Y-109612295D01*
X177563809Y-109612295D02*
X177487618Y-109574200D01*
X177487618Y-109574200D02*
X177449523Y-109536104D01*
X174630476Y-112152295D02*
X174363809Y-111771342D01*
X174173333Y-112152295D02*
X174173333Y-111352295D01*
X174173333Y-111352295D02*
X174478095Y-111352295D01*
X174478095Y-111352295D02*
X174554285Y-111390390D01*
X174554285Y-111390390D02*
X174592380Y-111428485D01*
X174592380Y-111428485D02*
X174630476Y-111504676D01*
X174630476Y-111504676D02*
X174630476Y-111618961D01*
X174630476Y-111618961D02*
X174592380Y-111695152D01*
X174592380Y-111695152D02*
X174554285Y-111733247D01*
X174554285Y-111733247D02*
X174478095Y-111771342D01*
X174478095Y-111771342D02*
X174173333Y-111771342D01*
X174973333Y-111847533D02*
X175582857Y-111847533D01*
X175963809Y-112152295D02*
X175963809Y-111352295D01*
X175963809Y-111352295D02*
X176268571Y-111352295D01*
X176268571Y-111352295D02*
X176344761Y-111390390D01*
X176344761Y-111390390D02*
X176382856Y-111428485D01*
X176382856Y-111428485D02*
X176420952Y-111504676D01*
X176420952Y-111504676D02*
X176420952Y-111618961D01*
X176420952Y-111618961D02*
X176382856Y-111695152D01*
X176382856Y-111695152D02*
X176344761Y-111733247D01*
X176344761Y-111733247D02*
X176268571Y-111771342D01*
X176268571Y-111771342D02*
X175963809Y-111771342D01*
X177182856Y-112152295D02*
X176725713Y-112152295D01*
X176954285Y-112152295D02*
X176954285Y-111352295D01*
X176954285Y-111352295D02*
X176878094Y-111466580D01*
X176878094Y-111466580D02*
X176801904Y-111542771D01*
X176801904Y-111542771D02*
X176725713Y-111580866D01*
X177868571Y-111618961D02*
X177868571Y-112152295D01*
X177678095Y-111314200D02*
X177487618Y-111885628D01*
X177487618Y-111885628D02*
X177982857Y-111885628D01*
X174630476Y-114692295D02*
X174363809Y-114311342D01*
X174173333Y-114692295D02*
X174173333Y-113892295D01*
X174173333Y-113892295D02*
X174478095Y-113892295D01*
X174478095Y-113892295D02*
X174554285Y-113930390D01*
X174554285Y-113930390D02*
X174592380Y-113968485D01*
X174592380Y-113968485D02*
X174630476Y-114044676D01*
X174630476Y-114044676D02*
X174630476Y-114158961D01*
X174630476Y-114158961D02*
X174592380Y-114235152D01*
X174592380Y-114235152D02*
X174554285Y-114273247D01*
X174554285Y-114273247D02*
X174478095Y-114311342D01*
X174478095Y-114311342D02*
X174173333Y-114311342D01*
X174973333Y-114387533D02*
X175582857Y-114387533D01*
X175963809Y-114692295D02*
X175963809Y-113892295D01*
X175963809Y-113892295D02*
X176268571Y-113892295D01*
X176268571Y-113892295D02*
X176344761Y-113930390D01*
X176344761Y-113930390D02*
X176382856Y-113968485D01*
X176382856Y-113968485D02*
X176420952Y-114044676D01*
X176420952Y-114044676D02*
X176420952Y-114158961D01*
X176420952Y-114158961D02*
X176382856Y-114235152D01*
X176382856Y-114235152D02*
X176344761Y-114273247D01*
X176344761Y-114273247D02*
X176268571Y-114311342D01*
X176268571Y-114311342D02*
X175963809Y-114311342D01*
X177182856Y-114692295D02*
X176725713Y-114692295D01*
X176954285Y-114692295D02*
X176954285Y-113892295D01*
X176954285Y-113892295D02*
X176878094Y-114006580D01*
X176878094Y-114006580D02*
X176801904Y-114082771D01*
X176801904Y-114082771D02*
X176725713Y-114120866D01*
X177906666Y-113892295D02*
X177525714Y-113892295D01*
X177525714Y-113892295D02*
X177487618Y-114273247D01*
X177487618Y-114273247D02*
X177525714Y-114235152D01*
X177525714Y-114235152D02*
X177601904Y-114197057D01*
X177601904Y-114197057D02*
X177792380Y-114197057D01*
X177792380Y-114197057D02*
X177868571Y-114235152D01*
X177868571Y-114235152D02*
X177906666Y-114273247D01*
X177906666Y-114273247D02*
X177944761Y-114349438D01*
X177944761Y-114349438D02*
X177944761Y-114539914D01*
X177944761Y-114539914D02*
X177906666Y-114616104D01*
X177906666Y-114616104D02*
X177868571Y-114654200D01*
X177868571Y-114654200D02*
X177792380Y-114692295D01*
X177792380Y-114692295D02*
X177601904Y-114692295D01*
X177601904Y-114692295D02*
X177525714Y-114654200D01*
X177525714Y-114654200D02*
X177487618Y-114616104D01*
D13*
X169429271Y-59193332D02*
X170336414Y-59193332D01*
X170336414Y-59193332D02*
X170517842Y-59253809D01*
X170517842Y-59253809D02*
X170638795Y-59374761D01*
X170638795Y-59374761D02*
X170699271Y-59556190D01*
X170699271Y-59556190D02*
X170699271Y-59677142D01*
X169550223Y-58649047D02*
X169489747Y-58588571D01*
X169489747Y-58588571D02*
X169429271Y-58467618D01*
X169429271Y-58467618D02*
X169429271Y-58165237D01*
X169429271Y-58165237D02*
X169489747Y-58044285D01*
X169489747Y-58044285D02*
X169550223Y-57983809D01*
X169550223Y-57983809D02*
X169671175Y-57923332D01*
X169671175Y-57923332D02*
X169792128Y-57923332D01*
X169792128Y-57923332D02*
X169973556Y-57983809D01*
X169973556Y-57983809D02*
X170699271Y-58709523D01*
X170699271Y-58709523D02*
X170699271Y-57923332D01*
X149116667Y-78079271D02*
X149116667Y-78986414D01*
X149116667Y-78986414D02*
X149056190Y-79167842D01*
X149056190Y-79167842D02*
X148935238Y-79288795D01*
X148935238Y-79288795D02*
X148753809Y-79349271D01*
X148753809Y-79349271D02*
X148632857Y-79349271D01*
X150386667Y-79349271D02*
X149660952Y-79349271D01*
X150023809Y-79349271D02*
X150023809Y-78079271D01*
X150023809Y-78079271D02*
X149902857Y-78260699D01*
X149902857Y-78260699D02*
X149781905Y-78381652D01*
X149781905Y-78381652D02*
X149660952Y-78442128D01*
M02*
