<?xml version="1.0" standalone="no"?>
 <!DOCTYPE svg PUBLIC "-//W3C//DTD SVG 1.1//EN" 
 "http://www.w3.org/Graphics/SVG/1.1/DTD/svg11.dtd"> 
<svg
  xmlns:svg="http://www.w3.org/2000/svg"
  xmlns="http://www.w3.org/2000/svg"
  xmlns:xlink="http://www.w3.org/1999/xlink"
  xmlns:inkscape="http://www.inkscape.org/namespaces/inkscape"
  version="1.1"
  width="49.9872mm" height="34.9758mm" viewBox="0.0000 0.0000 49.9872 34.9758">
<title>SVG Image created as pcb.svg date 2026-06-20T16:51:08 </title>
  <desc>Image generated by PCBNEW </desc>
<g style="fill:#000000; fill-opacity:1.0000;stroke:#000000; stroke-opacity:1.0000;
stroke-linecap:round; stroke-linejoin:round;"
 transform="translate(0 0) scale(1 1)">
</g>
<g style="fill:none; 
stroke:#C872AB; stroke-width:0.1500; stroke-opacity:1; 
stroke-linecap:round; stroke-linejoin:round;">
<path d="M-45.0000 8.5000
L63.0000 8.5000
L63.0000 40.5000
L-45.0000 40.5000
L-45.0000 8.5000
" />
<path d="M35.0000 27.5000
L65.0000 27.5000
L65.0000 42.5000
L35.0000 42.5000
L35.0000 27.5000
" />
<path d="M37.0000 29.5000
L63.0000 29.5000
L63.0000 40.5000
L37.0000 40.5000
L37.0000 29.5000
" />
<path d="M85.0000 29.5000
L85.0000 27.5000
" />
<text x="60.0000" y="29.1500"
textLength="1.4281" font-size="1.7333" lengthAdjust="spacingAndGlyphs"
text-anchor="start" opacity="0" stroke-opacity="0">1</text>
<g class="stroked-text"><desc>1</desc>
<path d="M61.0892 29.0936
L60.3463 29.0936
" />
<path d="M60.7177 29.0936
L60.7177 27.7936
" />
<path d="M60.7177 27.7936
L60.5939 27.9793
" />
<path d="M60.5939 27.9793
L60.4701 28.1031
" />
<path d="M60.4701 28.1031
L60.3463 28.1650
" />
</g><path d="M85.0000 40.5000
L85.0000 42.5000
" />
<text x="60.0000" y="42.1500"
textLength="1.4281" font-size="1.7333" lengthAdjust="spacingAndGlyphs"
text-anchor="start" opacity="0" stroke-opacity="0">1</text>
<g class="stroked-text"><desc>1</desc>
<path d="M61.0892 42.0936
L60.3463 42.0936
" />
<path d="M60.7177 42.0936
L60.7177 40.7936
" />
<path d="M60.7177 40.7936
L60.5939 40.9793
" />
<path d="M60.5939 40.9793
L60.4701 41.1031
" />
<path d="M60.4701 41.1031
L60.3463 41.1650
" />
</g><path d="M35.0000 77.5000
L37.0000 77.5000
" />
<text x="36.0000" y="53.1500"
textLength="1.3043" font-size="1.7333" lengthAdjust="spacingAndGlyphs"
text-anchor="middle" opacity="0" stroke-opacity="0">A</text>
<g class="stroked-text"><desc>A</desc>
<path d="M35.6905 52.7222
L36.3095 52.7222
" />
<path d="M35.5667 53.0936
L36.0000 51.7936
" />
<path d="M36.0000 51.7936
L36.4333 53.0936
" />
</g><path d="M65.0000 77.5000
L63.0000 77.5000
" />
<text x="64.0000" y="53.1500"
textLength="1.3043" font-size="1.7333" lengthAdjust="spacingAndGlyphs"
text-anchor="middle" opacity="0" stroke-opacity="0">A</text>
<g class="stroked-text"><desc>A</desc>
<path d="M63.6905 52.7222
L64.3095 52.7222
" />
<path d="M63.5667 53.0936
L64.0000 51.7936
" />
<path d="M64.0000 51.7936
L64.4333 53.0936
" />
</g><text x="-22.0000" y="36.3500"
textLength="7.0071" font-size="2.0000" lengthAdjust="spacingAndGlyphs"
text-anchor="start" opacity="0" stroke-opacity="0">Date: </text>
<g class="stroked-text"><desc>Date: </desc>
<path d="M-21.5442 36.2861
L-21.5442 34.7861
" />
<path d="M-21.5442 34.7861
L-21.1870 34.7861
" />
<path d="M-21.1870 34.7861
L-20.9727 34.8576
" />
<path d="M-20.9727 34.8576
L-20.8299 35.0004
" />
<path d="M-20.8299 35.0004
L-20.7585 35.1433
" />
<path d="M-20.7585 35.1433
L-20.6870 35.4290
" />
<path d="M-20.6870 35.4290
L-20.6870 35.6433
" />
<path d="M-20.6870 35.6433
L-20.7585 35.9290
" />
<path d="M-20.7585 35.9290
L-20.8299 36.0718
" />
<path d="M-20.8299 36.0718
L-20.9727 36.2147
" />
<path d="M-20.9727 36.2147
L-21.1870 36.2861
" />
<path d="M-21.1870 36.2861
L-21.5442 36.2861
" />
<path d="M-19.4013 36.2861
L-19.4013 35.5004
" />
<path d="M-19.4013 35.5004
L-19.4727 35.3576
" />
<path d="M-19.4727 35.3576
L-19.6156 35.2861
" />
<path d="M-19.6156 35.2861
L-19.9013 35.2861
" />
<path d="M-19.9013 35.2861
L-20.0442 35.3576
" />
<path d="M-19.4013 36.2147
L-19.5442 36.2861
" />
<path d="M-19.5442 36.2861
L-19.9013 36.2861
" />
<path d="M-19.9013 36.2861
L-20.0442 36.2147
" />
<path d="M-20.0442 36.2147
L-20.1156 36.0718
" />
<path d="M-20.1156 36.0718
L-20.1156 35.9290
" />
<path d="M-20.1156 35.9290
L-20.0442 35.7861
" />
<path d="M-20.0442 35.7861
L-19.9013 35.7147
" />
<path d="M-19.9013 35.7147
L-19.5442 35.7147
" />
<path d="M-19.5442 35.7147
L-19.4013 35.6433
" />
<path d="M-18.9013 35.2861
L-18.3299 35.2861
" />
<path d="M-18.6870 34.7861
L-18.6870 36.0718
" />
<path d="M-18.6870 36.0718
L-18.6156 36.2147
" />
<path d="M-18.6156 36.2147
L-18.4727 36.2861
" />
<path d="M-18.4727 36.2861
L-18.3299 36.2861
" />
<path d="M-17.2585 36.2147
L-17.4013 36.2861
" />
<path d="M-17.4013 36.2861
L-17.6870 36.2861
" />
<path d="M-17.6870 36.2861
L-17.8299 36.2147
" />
<path d="M-17.8299 36.2147
L-17.9013 36.0718
" />
<path d="M-17.9013 36.0718
L-17.9013 35.5004
" />
<path d="M-17.9013 35.5004
L-17.8299 35.3576
" />
<path d="M-17.8299 35.3576
L-17.6870 35.2861
" />
<path d="M-17.6870 35.2861
L-17.4013 35.2861
" />
<path d="M-17.4013 35.2861
L-17.2585 35.3576
" />
<path d="M-17.2585 35.3576
L-17.1870 35.5004
" />
<path d="M-17.1870 35.5004
L-17.1870 35.6433
" />
<path d="M-17.1870 35.6433
L-17.9013 35.7861
" />
<path d="M-16.5442 36.1433
L-16.4727 36.2147
" />
<path d="M-16.4727 36.2147
L-16.5442 36.2861
" />
<path d="M-16.5442 36.2861
L-16.6156 36.2147
" />
<path d="M-16.6156 36.2147
L-16.5442 36.1433
" />
<path d="M-16.5442 36.1433
L-16.5442 36.2861
" />
<path d="M-16.5442 35.3576
L-16.4727 35.4290
" />
<path d="M-16.4727 35.4290
L-16.5442 35.5004
" />
<path d="M-16.5442 35.5004
L-16.6156 35.4290
" />
<path d="M-16.6156 35.4290
L-16.5442 35.3576
" />
<path d="M-16.5442 35.3576
L-16.5442 35.5004
" />
</g><path d="M-45.0000 37.0000
L63.0000 37.0000
" />
<text x="-44.0000" y="39.1500"
textLength="22.2929" font-size="2.0000" lengthAdjust="spacingAndGlyphs"
text-anchor="start" opacity="0" stroke-opacity="0">KiCad E.D.A. 10.0.4</text>
<g class="stroked-text"><desc>KiCad E.D.A. 10.0.4</desc>
<path d="M-43.5442 39.0861
L-43.5442 37.5861
" />
<path d="M-42.6870 39.0861
L-43.3299 38.2290
" />
<path d="M-42.6870 37.5861
L-43.5442 38.4433
" />
<path d="M-42.0442 39.0861
L-42.0442 38.0861
" />
<path d="M-42.0442 37.5861
L-42.1156 37.6576
" />
<path d="M-42.1156 37.6576
L-42.0442 37.7290
" />
<path d="M-42.0442 37.7290
L-41.9727 37.6576
" />
<path d="M-41.9727 37.6576
L-42.0442 37.5861
" />
<path d="M-42.0442 37.5861
L-42.0442 37.7290
" />
<path d="M-40.4727 38.9433
L-40.5442 39.0147
" />
<path d="M-40.5442 39.0147
L-40.7585 39.0861
" />
<path d="M-40.7585 39.0861
L-40.9013 39.0861
" />
<path d="M-40.9013 39.0861
L-41.1156 39.0147
" />
<path d="M-41.1156 39.0147
L-41.2585 38.8718
" />
<path d="M-41.2585 38.8718
L-41.3299 38.7290
" />
<path d="M-41.3299 38.7290
L-41.4013 38.4433
" />
<path d="M-41.4013 38.4433
L-41.4013 38.2290
" />
<path d="M-41.4013 38.2290
L-41.3299 37.9433
" />
<path d="M-41.3299 37.9433
L-41.2585 37.8004
" />
<path d="M-41.2585 37.8004
L-41.1156 37.6576
" />
<path d="M-41.1156 37.6576
L-40.9013 37.5861
" />
<path d="M-40.9013 37.5861
L-40.7585 37.5861
" />
<path d="M-40.7585 37.5861
L-40.5442 37.6576
" />
<path d="M-40.5442 37.6576
L-40.4727 37.7290
" />
<path d="M-39.1870 39.0861
L-39.1870 38.3004
" />
<path d="M-39.1870 38.3004
L-39.2585 38.1576
" />
<path d="M-39.2585 38.1576
L-39.4013 38.0861
" />
<path d="M-39.4013 38.0861
L-39.6870 38.0861
" />
<path d="M-39.6870 38.0861
L-39.8299 38.1576
" />
<path d="M-39.1870 39.0147
L-39.3299 39.0861
" />
<path d="M-39.3299 39.0861
L-39.6870 39.0861
" />
<path d="M-39.6870 39.0861
L-39.8299 39.0147
" />
<path d="M-39.8299 39.0147
L-39.9013 38.8718
" />
<path d="M-39.9013 38.8718
L-39.9013 38.7290
" />
<path d="M-39.9013 38.7290
L-39.8299 38.5861
" />
<path d="M-39.8299 38.5861
L-39.6870 38.5147
" />
<path d="M-39.6870 38.5147
L-39.3299 38.5147
" />
<path d="M-39.3299 38.5147
L-39.1870 38.4433
" />
<path d="M-37.8299 39.0861
L-37.8299 37.5861
" />
<path d="M-37.8299 39.0147
L-37.9727 39.0861
" />
<path d="M-37.9727 39.0861
L-38.2585 39.0861
" />
<path d="M-38.2585 39.0861
L-38.4013 39.0147
" />
<path d="M-38.4013 39.0147
L-38.4727 38.9433
" />
<path d="M-38.4727 38.9433
L-38.5442 38.8004
" />
<path d="M-38.5442 38.8004
L-38.5442 38.3718
" />
<path d="M-38.5442 38.3718
L-38.4727 38.2290
" />
<path d="M-38.4727 38.2290
L-38.4013 38.1576
" />
<path d="M-38.4013 38.1576
L-38.2585 38.0861
" />
<path d="M-38.2585 38.0861
L-37.9727 38.0861
" />
<path d="M-37.9727 38.0861
L-37.8299 38.1576
" />
<path d="M-35.9727 38.3004
L-35.4727 38.3004
" />
<path d="M-35.2585 39.0861
L-35.9727 39.0861
" />
<path d="M-35.9727 39.0861
L-35.9727 37.5861
" />
<path d="M-35.9727 37.5861
L-35.2585 37.5861
" />
<path d="M-34.6156 38.9433
L-34.5442 39.0147
" />
<path d="M-34.5442 39.0147
L-34.6156 39.0861
" />
<path d="M-34.6156 39.0861
L-34.6870 39.0147
" />
<path d="M-34.6870 39.0147
L-34.6156 38.9433
" />
<path d="M-34.6156 38.9433
L-34.6156 39.0861
" />
<path d="M-33.9013 39.0861
L-33.9013 37.5861
" />
<path d="M-33.9013 37.5861
L-33.5442 37.5861
" />
<path d="M-33.5442 37.5861
L-33.3299 37.6576
" />
<path d="M-33.3299 37.6576
L-33.1870 37.8004
" />
<path d="M-33.1870 37.8004
L-33.1156 37.9433
" />
<path d="M-33.1156 37.9433
L-33.0442 38.2290
" />
<path d="M-33.0442 38.2290
L-33.0442 38.4433
" />
<path d="M-33.0442 38.4433
L-33.1156 38.7290
" />
<path d="M-33.1156 38.7290
L-33.1870 38.8718
" />
<path d="M-33.1870 38.8718
L-33.3299 39.0147
" />
<path d="M-33.3299 39.0147
L-33.5442 39.0861
" />
<path d="M-33.5442 39.0861
L-33.9013 39.0861
" />
<path d="M-32.4013 38.9433
L-32.3299 39.0147
" />
<path d="M-32.3299 39.0147
L-32.4013 39.0861
" />
<path d="M-32.4013 39.0861
L-32.4727 39.0147
" />
<path d="M-32.4727 39.0147
L-32.4013 38.9433
" />
<path d="M-32.4013 38.9433
L-32.4013 39.0861
" />
<path d="M-31.7585 38.6576
L-31.0442 38.6576
" />
<path d="M-31.9013 39.0861
L-31.4013 37.5861
" />
<path d="M-31.4013 37.5861
L-30.9013 39.0861
" />
<path d="M-30.4013 38.9433
L-30.3299 39.0147
" />
<path d="M-30.3299 39.0147
L-30.4013 39.0861
" />
<path d="M-30.4013 39.0861
L-30.4727 39.0147
" />
<path d="M-30.4727 39.0147
L-30.4013 38.9433
" />
<path d="M-30.4013 38.9433
L-30.4013 39.0861
" />
<path d="M-27.7585 39.0861
L-28.6156 39.0861
" />
<path d="M-28.1870 39.0861
L-28.1870 37.5861
" />
<path d="M-28.1870 37.5861
L-28.3299 37.8004
" />
<path d="M-28.3299 37.8004
L-28.4727 37.9433
" />
<path d="M-28.4727 37.9433
L-28.6156 38.0147
" />
<path d="M-26.8299 37.5861
L-26.6870 37.5861
" />
<path d="M-26.6870 37.5861
L-26.5442 37.6576
" />
<path d="M-26.5442 37.6576
L-26.4727 37.7290
" />
<path d="M-26.4727 37.7290
L-26.4013 37.8718
" />
<path d="M-26.4013 37.8718
L-26.3299 38.1576
" />
<path d="M-26.3299 38.1576
L-26.3299 38.5147
" />
<path d="M-26.3299 38.5147
L-26.4013 38.8004
" />
<path d="M-26.4013 38.8004
L-26.4727 38.9433
" />
<path d="M-26.4727 38.9433
L-26.5442 39.0147
" />
<path d="M-26.5442 39.0147
L-26.6870 39.0861
" />
<path d="M-26.6870 39.0861
L-26.8299 39.0861
" />
<path d="M-26.8299 39.0861
L-26.9727 39.0147
" />
<path d="M-26.9727 39.0147
L-27.0442 38.9433
" />
<path d="M-27.0442 38.9433
L-27.1156 38.8004
" />
<path d="M-27.1156 38.8004
L-27.1870 38.5147
" />
<path d="M-27.1870 38.5147
L-27.1870 38.1576
" />
<path d="M-27.1870 38.1576
L-27.1156 37.8718
" />
<path d="M-27.1156 37.8718
L-27.0442 37.7290
" />
<path d="M-27.0442 37.7290
L-26.9727 37.6576
" />
<path d="M-26.9727 37.6576
L-26.8299 37.5861
" />
<path d="M-25.6870 38.9433
L-25.6156 39.0147
" />
<path d="M-25.6156 39.0147
L-25.6870 39.0861
" />
<path d="M-25.6870 39.0861
L-25.7585 39.0147
" />
<path d="M-25.7585 39.0147
L-25.6870 38.9433
" />
<path d="M-25.6870 38.9433
L-25.6870 39.0861
" />
<path d="M-24.6870 37.5861
L-24.5442 37.5861
" />
<path d="M-24.5442 37.5861
L-24.4013 37.6576
" />
<path d="M-24.4013 37.6576
L-24.3299 37.7290
" />
<path d="M-24.3299 37.7290
L-24.2585 37.8718
" />
<path d="M-24.2585 37.8718
L-24.1870 38.1576
" />
<path d="M-24.1870 38.1576
L-24.1870 38.5147
" />
<path d="M-24.1870 38.5147
L-24.2585 38.8004
" />
<path d="M-24.2585 38.8004
L-24.3299 38.9433
" />
<path d="M-24.3299 38.9433
L-24.4013 39.0147
" />
<path d="M-24.4013 39.0147
L-24.5442 39.0861
" />
<path d="M-24.5442 39.0861
L-24.6870 39.0861
" />
<path d="M-24.6870 39.0861
L-24.8299 39.0147
" />
<path d="M-24.8299 39.0147
L-24.9013 38.9433
" />
<path d="M-24.9013 38.9433
L-24.9727 38.8004
" />
<path d="M-24.9727 38.8004
L-25.0442 38.5147
" />
<path d="M-25.0442 38.5147
L-25.0442 38.1576
" />
<path d="M-25.0442 38.1576
L-24.9727 37.8718
" />
<path d="M-24.9727 37.8718
L-24.9013 37.7290
" />
<path d="M-24.9013 37.7290
L-24.8299 37.6576
" />
<path d="M-24.8299 37.6576
L-24.6870 37.5861
" />
<path d="M-23.5442 38.9433
L-23.4727 39.0147
" />
<path d="M-23.4727 39.0147
L-23.5442 39.0861
" />
<path d="M-23.5442 39.0861
L-23.6156 39.0147
" />
<path d="M-23.6156 39.0147
L-23.5442 38.9433
" />
<path d="M-23.5442 38.9433
L-23.5442 39.0861
" />
<path d="M-22.1870 38.0861
L-22.1870 39.0861
" />
<path d="M-22.5442 37.5147
L-22.9013 38.5861
" />
<path d="M-22.9013 38.5861
L-21.9727 38.5861
" />
</g><path d="M-45.0000 34.0000
L63.0000 34.0000
" />
</g>
<g style="fill:none; 
stroke:#C872AB; stroke-width:0.3000; stroke-opacity:1; 
stroke-linecap:round; stroke-linejoin:round;">
<text x="41.0000" y="36.3500"
textLength="6.3857" font-size="2.0000" lengthAdjust="spacingAndGlyphs"
text-anchor="start" opacity="0" stroke-opacity="0">Rev: </text>
<g class="stroked-text"><desc>Rev: </desc>
<path d="M42.4117 36.2783
L41.9117 35.5640
" />
<path d="M41.5545 36.2783
L41.5545 34.7783
" />
<path d="M41.5545 34.7783
L42.1259 34.7783
" />
<path d="M42.1259 34.7783
L42.2688 34.8498
" />
<path d="M42.2688 34.8498
L42.3402 34.9212
" />
<path d="M42.3402 34.9212
L42.4117 35.0640
" />
<path d="M42.4117 35.0640
L42.4117 35.2783
" />
<path d="M42.4117 35.2783
L42.3402 35.4212
" />
<path d="M42.3402 35.4212
L42.2688 35.4926
" />
<path d="M42.2688 35.4926
L42.1259 35.5640
" />
<path d="M42.1259 35.5640
L41.5545 35.5640
" />
<path d="M43.6259 36.2069
L43.4831 36.2783
" />
<path d="M43.4831 36.2783
L43.1974 36.2783
" />
<path d="M43.1974 36.2783
L43.0545 36.2069
" />
<path d="M43.0545 36.2069
L42.9831 36.0640
" />
<path d="M42.9831 36.0640
L42.9831 35.4926
" />
<path d="M42.9831 35.4926
L43.0545 35.3498
" />
<path d="M43.0545 35.3498
L43.1974 35.2783
" />
<path d="M43.1974 35.2783
L43.4831 35.2783
" />
<path d="M43.4831 35.2783
L43.6259 35.3498
" />
<path d="M43.6259 35.3498
L43.6974 35.4926
" />
<path d="M43.6974 35.4926
L43.6974 35.6355
" />
<path d="M43.6974 35.6355
L42.9831 35.7783
" />
<path d="M44.1974 35.2783
L44.5545 36.2783
" />
<path d="M44.5545 36.2783
L44.9117 35.2783
" />
<path d="M45.4831 36.1355
L45.5545 36.2069
" />
<path d="M45.5545 36.2069
L45.4831 36.2783
" />
<path d="M45.4831 36.2783
L45.4117 36.2069
" />
<path d="M45.4117 36.2069
L45.4831 36.1355
" />
<path d="M45.4831 36.1355
L45.4831 36.2783
" />
<path d="M45.4831 35.3498
L45.5545 35.4212
" />
<path d="M45.5545 35.4212
L45.4831 35.4926
" />
<path d="M45.4831 35.4926
L45.4117 35.4212
" />
<path d="M45.4117 35.4212
L45.4831 35.3498
" />
<path d="M45.4831 35.3498
L45.4831 35.4926
" />
</g></g>
<g style="fill:none; 
stroke:#C872AB; stroke-width:0.1500; stroke-opacity:1; 
stroke-linecap:round; stroke-linejoin:round;">
<text x="-44.0000" y="36.3500"
textLength="11.6500" font-size="2.0000" lengthAdjust="spacingAndGlyphs"
text-anchor="start" opacity="0" stroke-opacity="0">Size: User</text>
<g class="stroked-text"><desc>Size: User</desc>
<path d="M-43.6156 36.2147
L-43.4013 36.2861
" />
<path d="M-43.4013 36.2861
L-43.0442 36.2861
" />
<path d="M-43.0442 36.2861
L-42.9013 36.2147
" />
<path d="M-42.9013 36.2147
L-42.8299 36.1433
" />
<path d="M-42.8299 36.1433
L-42.7585 36.0004
" />
<path d="M-42.7585 36.0004
L-42.7585 35.8576
" />
<path d="M-42.7585 35.8576
L-42.8299 35.7147
" />
<path d="M-42.8299 35.7147
L-42.9013 35.6433
" />
<path d="M-42.9013 35.6433
L-43.0442 35.5718
" />
<path d="M-43.0442 35.5718
L-43.3299 35.5004
" />
<path d="M-43.3299 35.5004
L-43.4727 35.4290
" />
<path d="M-43.4727 35.4290
L-43.5442 35.3576
" />
<path d="M-43.5442 35.3576
L-43.6156 35.2147
" />
<path d="M-43.6156 35.2147
L-43.6156 35.0718
" />
<path d="M-43.6156 35.0718
L-43.5442 34.9290
" />
<path d="M-43.5442 34.9290
L-43.4727 34.8576
" />
<path d="M-43.4727 34.8576
L-43.3299 34.7861
" />
<path d="M-43.3299 34.7861
L-42.9727 34.7861
" />
<path d="M-42.9727 34.7861
L-42.7585 34.8576
" />
<path d="M-42.1156 36.2861
L-42.1156 35.2861
" />
<path d="M-42.1156 34.7861
L-42.1870 34.8576
" />
<path d="M-42.1870 34.8576
L-42.1156 34.9290
" />
<path d="M-42.1156 34.9290
L-42.0442 34.8576
" />
<path d="M-42.0442 34.8576
L-42.1156 34.7861
" />
<path d="M-42.1156 34.7861
L-42.1156 34.9290
" />
<path d="M-41.5442 35.2861
L-40.7585 35.2861
" />
<path d="M-40.7585 35.2861
L-41.5442 36.2861
" />
<path d="M-41.5442 36.2861
L-40.7585 36.2861
" />
<path d="M-39.6156 36.2147
L-39.7585 36.2861
" />
<path d="M-39.7585 36.2861
L-40.0442 36.2861
" />
<path d="M-40.0442 36.2861
L-40.1870 36.2147
" />
<path d="M-40.1870 36.2147
L-40.2585 36.0718
" />
<path d="M-40.2585 36.0718
L-40.2585 35.5004
" />
<path d="M-40.2585 35.5004
L-40.1870 35.3576
" />
<path d="M-40.1870 35.3576
L-40.0442 35.2861
" />
<path d="M-40.0442 35.2861
L-39.7585 35.2861
" />
<path d="M-39.7585 35.2861
L-39.6156 35.3576
" />
<path d="M-39.6156 35.3576
L-39.5442 35.5004
" />
<path d="M-39.5442 35.5004
L-39.5442 35.6433
" />
<path d="M-39.5442 35.6433
L-40.2585 35.7861
" />
<path d="M-38.9013 36.1433
L-38.8299 36.2147
" />
<path d="M-38.8299 36.2147
L-38.9013 36.2861
" />
<path d="M-38.9013 36.2861
L-38.9727 36.2147
" />
<path d="M-38.9727 36.2147
L-38.9013 36.1433
" />
<path d="M-38.9013 36.1433
L-38.9013 36.2861
" />
<path d="M-38.9013 35.3576
L-38.8299 35.4290
" />
<path d="M-38.8299 35.4290
L-38.9013 35.5004
" />
<path d="M-38.9013 35.5004
L-38.9727 35.4290
" />
<path d="M-38.9727 35.4290
L-38.9013 35.3576
" />
<path d="M-38.9013 35.3576
L-38.9013 35.5004
" />
<path d="M-37.0442 34.7861
L-37.0442 36.0004
" />
<path d="M-37.0442 36.0004
L-36.9727 36.1433
" />
<path d="M-36.9727 36.1433
L-36.9013 36.2147
" />
<path d="M-36.9013 36.2147
L-36.7585 36.2861
" />
<path d="M-36.7585 36.2861
L-36.4727 36.2861
" />
<path d="M-36.4727 36.2861
L-36.3299 36.2147
" />
<path d="M-36.3299 36.2147
L-36.2585 36.1433
" />
<path d="M-36.2585 36.1433
L-36.1870 36.0004
" />
<path d="M-36.1870 36.0004
L-36.1870 34.7861
" />
<path d="M-35.5442 36.2147
L-35.4013 36.2861
" />
<path d="M-35.4013 36.2861
L-35.1156 36.2861
" />
<path d="M-35.1156 36.2861
L-34.9727 36.2147
" />
<path d="M-34.9727 36.2147
L-34.9013 36.0718
" />
<path d="M-34.9013 36.0718
L-34.9013 36.0004
" />
<path d="M-34.9013 36.0004
L-34.9727 35.8576
" />
<path d="M-34.9727 35.8576
L-35.1156 35.7861
" />
<path d="M-35.1156 35.7861
L-35.3299 35.7861
" />
<path d="M-35.3299 35.7861
L-35.4727 35.7147
" />
<path d="M-35.4727 35.7147
L-35.5442 35.5718
" />
<path d="M-35.5442 35.5718
L-35.5442 35.5004
" />
<path d="M-35.5442 35.5004
L-35.4727 35.3576
" />
<path d="M-35.4727 35.3576
L-35.3299 35.2861
" />
<path d="M-35.3299 35.2861
L-35.1156 35.2861
" />
<path d="M-35.1156 35.2861
L-34.9727 35.3576
" />
<path d="M-33.6870 36.2147
L-33.8299 36.2861
" />
<path d="M-33.8299 36.2861
L-34.1156 36.2861
" />
<path d="M-34.1156 36.2861
L-34.2585 36.2147
" />
<path d="M-34.2585 36.2147
L-34.3299 36.0718
" />
<path d="M-34.3299 36.0718
L-34.3299 35.5004
" />
<path d="M-34.3299 35.5004
L-34.2585 35.3576
" />
<path d="M-34.2585 35.3576
L-34.1156 35.2861
" />
<path d="M-34.1156 35.2861
L-33.8299 35.2861
" />
<path d="M-33.8299 35.2861
L-33.6870 35.3576
" />
<path d="M-33.6870 35.3576
L-33.6156 35.5004
" />
<path d="M-33.6156 35.5004
L-33.6156 35.6433
" />
<path d="M-33.6156 35.6433
L-34.3299 35.7861
" />
<path d="M-32.9727 36.2861
L-32.9727 35.2861
" />
<path d="M-32.9727 35.5718
L-32.9013 35.4290
" />
<path d="M-32.9013 35.4290
L-32.8299 35.3576
" />
<path d="M-32.8299 35.3576
L-32.6870 35.2861
" />
<path d="M-32.6870 35.2861
L-32.5442 35.2861
" />
</g><text x="41.0000" y="39.1500"
textLength="8.5071" font-size="2.0000" lengthAdjust="spacingAndGlyphs"
text-anchor="start" opacity="0" stroke-opacity="0">Id: 1/1</text>
<g class="stroked-text"><desc>Id: 1/1</desc>
<path d="M41.4558 39.0861
L41.4558 37.5861
" />
<path d="M42.8130 39.0861
L42.8130 37.5861
" />
<path d="M42.8130 39.0147
L42.6701 39.0861
" />
<path d="M42.6701 39.0861
L42.3844 39.0861
" />
<path d="M42.3844 39.0861
L42.2415 39.0147
" />
<path d="M42.2415 39.0147
L42.1701 38.9433
" />
<path d="M42.1701 38.9433
L42.0987 38.8004
" />
<path d="M42.0987 38.8004
L42.0987 38.3718
" />
<path d="M42.0987 38.3718
L42.1701 38.2290
" />
<path d="M42.1701 38.2290
L42.2415 38.1576
" />
<path d="M42.2415 38.1576
L42.3844 38.0861
" />
<path d="M42.3844 38.0861
L42.6701 38.0861
" />
<path d="M42.6701 38.0861
L42.8130 38.1576
" />
<path d="M43.5273 38.9433
L43.5987 39.0147
" />
<path d="M43.5987 39.0147
L43.5273 39.0861
" />
<path d="M43.5273 39.0861
L43.4558 39.0147
" />
<path d="M43.4558 39.0147
L43.5273 38.9433
" />
<path d="M43.5273 38.9433
L43.5273 39.0861
" />
<path d="M43.5273 38.1576
L43.5987 38.2290
" />
<path d="M43.5987 38.2290
L43.5273 38.3004
" />
<path d="M43.5273 38.3004
L43.4558 38.2290
" />
<path d="M43.4558 38.2290
L43.5273 38.1576
" />
<path d="M43.5273 38.1576
L43.5273 38.3004
" />
<path d="M46.1701 39.0861
L45.3130 39.0861
" />
<path d="M45.7415 39.0861
L45.7415 37.5861
" />
<path d="M45.7415 37.5861
L45.5987 37.8004
" />
<path d="M45.5987 37.8004
L45.4558 37.9433
" />
<path d="M45.4558 37.9433
L45.3130 38.0147
" />
<path d="M47.8844 37.5147
L46.5987 39.4433
" />
<path d="M49.1701 39.0861
L48.3130 39.0861
" />
<path d="M48.7415 39.0861
L48.7415 37.5861
" />
<path d="M48.7415 37.5861
L48.5987 37.8004
" />
<path d="M48.5987 37.8004
L48.4558 37.9433
" />
<path d="M48.4558 37.9433
L48.3130 38.0147
" />
</g><path d="M-45.0000 30.0000
L63.0000 30.0000
" />
</g>
<g style="fill:none; 
stroke:#C872AB; stroke-width:0.4000; stroke-opacity:1; 
stroke-linecap:round; stroke-linejoin:round;">
<text x="-44.0000" y="32.8000"
textLength="9.6571" font-size="2.6667" lengthAdjust="spacingAndGlyphs"
text-anchor="start" opacity="0" stroke-opacity="0">Title: </text>
<g class="stroked-text"><desc>Title: </desc>
<path d="M-43.3083 30.7044
L-42.1654 30.7044
" />
<path d="M-42.9868 32.7044
L-42.7368 30.7044
" />
<path d="M-41.7487 32.7044
L-41.5821 31.3711
" />
<path d="M-41.4987 30.7044
L-41.6059 30.7997
" />
<path d="M-41.6059 30.7997
L-41.5226 30.8949
" />
<path d="M-41.5226 30.8949
L-41.4154 30.7997
" />
<path d="M-41.4154 30.7997
L-41.4987 30.7044
" />
<path d="M-41.4987 30.7044
L-41.5226 30.8949
" />
<path d="M-40.9154 31.3711
L-40.1535 31.3711
" />
<path d="M-40.5464 30.7044
L-40.7607 32.4187
" />
<path d="M-40.7607 32.4187
L-40.6892 32.6092
" />
<path d="M-40.6892 32.6092
L-40.5107 32.7044
" />
<path d="M-40.5107 32.7044
L-40.3202 32.7044
" />
<path d="M-39.3678 32.7044
L-39.5464 32.6092
" />
<path d="M-39.5464 32.6092
L-39.6178 32.4187
" />
<path d="M-39.6178 32.4187
L-39.4035 30.7044
" />
<path d="M-37.8321 32.6092
L-38.0345 32.7044
" />
<path d="M-38.0345 32.7044
L-38.4154 32.7044
" />
<path d="M-38.4154 32.7044
L-38.5940 32.6092
" />
<path d="M-38.5940 32.6092
L-38.6654 32.4187
" />
<path d="M-38.6654 32.4187
L-38.5702 31.6568
" />
<path d="M-38.5702 31.6568
L-38.4511 31.4663
" />
<path d="M-38.4511 31.4663
L-38.2487 31.3711
" />
<path d="M-38.2487 31.3711
L-37.8678 31.3711
" />
<path d="M-37.8678 31.3711
L-37.6892 31.4663
" />
<path d="M-37.6892 31.4663
L-37.6178 31.6568
" />
<path d="M-37.6178 31.6568
L-37.6416 31.8473
" />
<path d="M-37.6416 31.8473
L-38.6178 32.0378
" />
<path d="M-36.8678 32.5140
L-36.7845 32.6092
" />
<path d="M-36.7845 32.6092
L-36.8916 32.7044
" />
<path d="M-36.8916 32.7044
L-36.9749 32.6092
" />
<path d="M-36.9749 32.6092
L-36.8678 32.5140
" />
<path d="M-36.8678 32.5140
L-36.8916 32.7044
" />
<path d="M-36.7368 31.4663
L-36.6535 31.5616
" />
<path d="M-36.6535 31.5616
L-36.7607 31.6568
" />
<path d="M-36.7607 31.6568
L-36.8440 31.5616
" />
<path d="M-36.8440 31.5616
L-36.7368 31.4663
" />
<path d="M-36.7368 31.4663
L-36.7607 31.6568
" />
</g></g>
<g style="fill:none; 
stroke:#C872AB; stroke-width:0.1500; stroke-opacity:1; 
stroke-linecap:round; stroke-linejoin:round;">
<text x="-44.0000" y="28.9500"
textLength="38.2214" font-size="2.0000" lengthAdjust="spacingAndGlyphs"
text-anchor="start" opacity="0" stroke-opacity="0">File: SedentaryDetector.kicad_pcb</text>
<g class="stroked-text"><desc>File: SedentaryDetector.kicad_pcb</desc>
<path d="M-43.0442 28.1004
L-43.5442 28.1004
" />
<path d="M-43.5442 28.8861
L-43.5442 27.3861
" />
<path d="M-43.5442 27.3861
L-42.8299 27.3861
" />
<path d="M-42.2585 28.8861
L-42.2585 27.8861
" />
<path d="M-42.2585 27.3861
L-42.3299 27.4576
" />
<path d="M-42.3299 27.4576
L-42.2585 27.5290
" />
<path d="M-42.2585 27.5290
L-42.1870 27.4576
" />
<path d="M-42.1870 27.4576
L-42.2585 27.3861
" />
<path d="M-42.2585 27.3861
L-42.2585 27.5290
" />
<path d="M-41.3299 28.8861
L-41.4727 28.8147
" />
<path d="M-41.4727 28.8147
L-41.5442 28.6718
" />
<path d="M-41.5442 28.6718
L-41.5442 27.3861
" />
<path d="M-40.1870 28.8147
L-40.3299 28.8861
" />
<path d="M-40.3299 28.8861
L-40.6156 28.8861
" />
<path d="M-40.6156 28.8861
L-40.7585 28.8147
" />
<path d="M-40.7585 28.8147
L-40.8299 28.6718
" />
<path d="M-40.8299 28.6718
L-40.8299 28.1004
" />
<path d="M-40.8299 28.1004
L-40.7585 27.9576
" />
<path d="M-40.7585 27.9576
L-40.6156 27.8861
" />
<path d="M-40.6156 27.8861
L-40.3299 27.8861
" />
<path d="M-40.3299 27.8861
L-40.1870 27.9576
" />
<path d="M-40.1870 27.9576
L-40.1156 28.1004
" />
<path d="M-40.1156 28.1004
L-40.1156 28.2433
" />
<path d="M-40.1156 28.2433
L-40.8299 28.3861
" />
<path d="M-39.4727 28.7433
L-39.4013 28.8147
" />
<path d="M-39.4013 28.8147
L-39.4727 28.8861
" />
<path d="M-39.4727 28.8861
L-39.5442 28.8147
" />
<path d="M-39.5442 28.8147
L-39.4727 28.7433
" />
<path d="M-39.4727 28.7433
L-39.4727 28.8861
" />
<path d="M-39.4727 27.9576
L-39.4013 28.0290
" />
<path d="M-39.4013 28.0290
L-39.4727 28.1004
" />
<path d="M-39.4727 28.1004
L-39.5442 28.0290
" />
<path d="M-39.5442 28.0290
L-39.4727 27.9576
" />
<path d="M-39.4727 27.9576
L-39.4727 28.1004
" />
<path d="M-37.6870 28.8147
L-37.4727 28.8861
" />
<path d="M-37.4727 28.8861
L-37.1156 28.8861
" />
<path d="M-37.1156 28.8861
L-36.9727 28.8147
" />
<path d="M-36.9727 28.8147
L-36.9013 28.7433
" />
<path d="M-36.9013 28.7433
L-36.8299 28.6004
" />
<path d="M-36.8299 28.6004
L-36.8299 28.4576
" />
<path d="M-36.8299 28.4576
L-36.9013 28.3147
" />
<path d="M-36.9013 28.3147
L-36.9727 28.2433
" />
<path d="M-36.9727 28.2433
L-37.1156 28.1718
" />
<path d="M-37.1156 28.1718
L-37.4013 28.1004
" />
<path d="M-37.4013 28.1004
L-37.5442 28.0290
" />
<path d="M-37.5442 28.0290
L-37.6156 27.9576
" />
<path d="M-37.6156 27.9576
L-37.6870 27.8147
" />
<path d="M-37.6870 27.8147
L-37.6870 27.6718
" />
<path d="M-37.6870 27.6718
L-37.6156 27.5290
" />
<path d="M-37.6156 27.5290
L-37.5442 27.4576
" />
<path d="M-37.5442 27.4576
L-37.4013 27.3861
" />
<path d="M-37.4013 27.3861
L-37.0442 27.3861
" />
<path d="M-37.0442 27.3861
L-36.8299 27.4576
" />
<path d="M-35.6156 28.8147
L-35.7585 28.8861
" />
<path d="M-35.7585 28.8861
L-36.0442 28.8861
" />
<path d="M-36.0442 28.8861
L-36.1870 28.8147
" />
<path d="M-36.1870 28.8147
L-36.2585 28.6718
" />
<path d="M-36.2585 28.6718
L-36.2585 28.1004
" />
<path d="M-36.2585 28.1004
L-36.1870 27.9576
" />
<path d="M-36.1870 27.9576
L-36.0442 27.8861
" />
<path d="M-36.0442 27.8861
L-35.7585 27.8861
" />
<path d="M-35.7585 27.8861
L-35.6156 27.9576
" />
<path d="M-35.6156 27.9576
L-35.5442 28.1004
" />
<path d="M-35.5442 28.1004
L-35.5442 28.2433
" />
<path d="M-35.5442 28.2433
L-36.2585 28.3861
" />
<path d="M-34.2585 28.8861
L-34.2585 27.3861
" />
<path d="M-34.2585 28.8147
L-34.4013 28.8861
" />
<path d="M-34.4013 28.8861
L-34.6870 28.8861
" />
<path d="M-34.6870 28.8861
L-34.8299 28.8147
" />
<path d="M-34.8299 28.8147
L-34.9013 28.7433
" />
<path d="M-34.9013 28.7433
L-34.9727 28.6004
" />
<path d="M-34.9727 28.6004
L-34.9727 28.1718
" />
<path d="M-34.9727 28.1718
L-34.9013 28.0290
" />
<path d="M-34.9013 28.0290
L-34.8299 27.9576
" />
<path d="M-34.8299 27.9576
L-34.6870 27.8861
" />
<path d="M-34.6870 27.8861
L-34.4013 27.8861
" />
<path d="M-34.4013 27.8861
L-34.2585 27.9576
" />
<path d="M-32.9727 28.8147
L-33.1156 28.8861
" />
<path d="M-33.1156 28.8861
L-33.4013 28.8861
" />
<path d="M-33.4013 28.8861
L-33.5442 28.8147
" />
<path d="M-33.5442 28.8147
L-33.6156 28.6718
" />
<path d="M-33.6156 28.6718
L-33.6156 28.1004
" />
<path d="M-33.6156 28.1004
L-33.5442 27.9576
" />
<path d="M-33.5442 27.9576
L-33.4013 27.8861
" />
<path d="M-33.4013 27.8861
L-33.1156 27.8861
" />
<path d="M-33.1156 27.8861
L-32.9727 27.9576
" />
<path d="M-32.9727 27.9576
L-32.9013 28.1004
" />
<path d="M-32.9013 28.1004
L-32.9013 28.2433
" />
<path d="M-32.9013 28.2433
L-33.6156 28.3861
" />
<path d="M-32.2585 27.8861
L-32.2585 28.8861
" />
<path d="M-32.2585 28.0290
L-32.1870 27.9576
" />
<path d="M-32.1870 27.9576
L-32.0442 27.8861
" />
<path d="M-32.0442 27.8861
L-31.8299 27.8861
" />
<path d="M-31.8299 27.8861
L-31.6870 27.9576
" />
<path d="M-31.6870 27.9576
L-31.6156 28.1004
" />
<path d="M-31.6156 28.1004
L-31.6156 28.8861
" />
<path d="M-31.1156 27.8861
L-30.5442 27.8861
" />
<path d="M-30.9013 27.3861
L-30.9013 28.6718
" />
<path d="M-30.9013 28.6718
L-30.8299 28.8147
" />
<path d="M-30.8299 28.8147
L-30.6870 28.8861
" />
<path d="M-30.6870 28.8861
L-30.5442 28.8861
" />
<path d="M-29.4013 28.8861
L-29.4013 28.1004
" />
<path d="M-29.4013 28.1004
L-29.4727 27.9576
" />
<path d="M-29.4727 27.9576
L-29.6156 27.8861
" />
<path d="M-29.6156 27.8861
L-29.9013 27.8861
" />
<path d="M-29.9013 27.8861
L-30.0442 27.9576
" />
<path d="M-29.4013 28.8147
L-29.5442 28.8861
" />
<path d="M-29.5442 28.8861
L-29.9013 28.8861
" />
<path d="M-29.9013 28.8861
L-30.0442 28.8147
" />
<path d="M-30.0442 28.8147
L-30.1156 28.6718
" />
<path d="M-30.1156 28.6718
L-30.1156 28.5290
" />
<path d="M-30.1156 28.5290
L-30.0442 28.3861
" />
<path d="M-30.0442 28.3861
L-29.9013 28.3147
" />
<path d="M-29.9013 28.3147
L-29.5442 28.3147
" />
<path d="M-29.5442 28.3147
L-29.4013 28.2433
" />
<path d="M-28.6870 28.8861
L-28.6870 27.8861
" />
<path d="M-28.6870 28.1718
L-28.6156 28.0290
" />
<path d="M-28.6156 28.0290
L-28.5442 27.9576
" />
<path d="M-28.5442 27.9576
L-28.4013 27.8861
" />
<path d="M-28.4013 27.8861
L-28.2585 27.8861
" />
<path d="M-27.9013 27.8861
L-27.5442 28.8861
" />
<path d="M-27.1870 27.8861
L-27.5442 28.8861
" />
<path d="M-27.5442 28.8861
L-27.6870 29.2433
" />
<path d="M-27.6870 29.2433
L-27.7585 29.3147
" />
<path d="M-27.7585 29.3147
L-27.9013 29.3861
" />
<path d="M-26.6156 28.8861
L-26.6156 27.3861
" />
<path d="M-26.6156 27.3861
L-26.2585 27.3861
" />
<path d="M-26.2585 27.3861
L-26.0442 27.4576
" />
<path d="M-26.0442 27.4576
L-25.9013 27.6004
" />
<path d="M-25.9013 27.6004
L-25.8299 27.7433
" />
<path d="M-25.8299 27.7433
L-25.7585 28.0290
" />
<path d="M-25.7585 28.0290
L-25.7585 28.2433
" />
<path d="M-25.7585 28.2433
L-25.8299 28.5290
" />
<path d="M-25.8299 28.5290
L-25.9013 28.6718
" />
<path d="M-25.9013 28.6718
L-26.0442 28.8147
" />
<path d="M-26.0442 28.8147
L-26.2585 28.8861
" />
<path d="M-26.2585 28.8861
L-26.6156 28.8861
" />
<path d="M-24.5442 28.8147
L-24.6870 28.8861
" />
<path d="M-24.6870 28.8861
L-24.9727 28.8861
" />
<path d="M-24.9727 28.8861
L-25.1156 28.8147
" />
<path d="M-25.1156 28.8147
L-25.1870 28.6718
" />
<path d="M-25.1870 28.6718
L-25.1870 28.1004
" />
<path d="M-25.1870 28.1004
L-25.1156 27.9576
" />
<path d="M-25.1156 27.9576
L-24.9727 27.8861
" />
<path d="M-24.9727 27.8861
L-24.6870 27.8861
" />
<path d="M-24.6870 27.8861
L-24.5442 27.9576
" />
<path d="M-24.5442 27.9576
L-24.4727 28.1004
" />
<path d="M-24.4727 28.1004
L-24.4727 28.2433
" />
<path d="M-24.4727 28.2433
L-25.1870 28.3861
" />
<path d="M-24.0442 27.8861
L-23.4727 27.8861
" />
<path d="M-23.8299 27.3861
L-23.8299 28.6718
" />
<path d="M-23.8299 28.6718
L-23.7585 28.8147
" />
<path d="M-23.7585 28.8147
L-23.6156 28.8861
" />
<path d="M-23.6156 28.8861
L-23.4727 28.8861
" />
<path d="M-22.4013 28.8147
L-22.5442 28.8861
" />
<path d="M-22.5442 28.8861
L-22.8299 28.8861
" />
<path d="M-22.8299 28.8861
L-22.9727 28.8147
" />
<path d="M-22.9727 28.8147
L-23.0442 28.6718
" />
<path d="M-23.0442 28.6718
L-23.0442 28.1004
" />
<path d="M-23.0442 28.1004
L-22.9727 27.9576
" />
<path d="M-22.9727 27.9576
L-22.8299 27.8861
" />
<path d="M-22.8299 27.8861
L-22.5442 27.8861
" />
<path d="M-22.5442 27.8861
L-22.4013 27.9576
" />
<path d="M-22.4013 27.9576
L-22.3299 28.1004
" />
<path d="M-22.3299 28.1004
L-22.3299 28.2433
" />
<path d="M-22.3299 28.2433
L-23.0442 28.3861
" />
<path d="M-21.0442 28.8147
L-21.1870 28.8861
" />
<path d="M-21.1870 28.8861
L-21.4727 28.8861
" />
<path d="M-21.4727 28.8861
L-21.6156 28.8147
" />
<path d="M-21.6156 28.8147
L-21.6870 28.7433
" />
<path d="M-21.6870 28.7433
L-21.7585 28.6004
" />
<path d="M-21.7585 28.6004
L-21.7585 28.1718
" />
<path d="M-21.7585 28.1718
L-21.6870 28.0290
" />
<path d="M-21.6870 28.0290
L-21.6156 27.9576
" />
<path d="M-21.6156 27.9576
L-21.4727 27.8861
" />
<path d="M-21.4727 27.8861
L-21.1870 27.8861
" />
<path d="M-21.1870 27.8861
L-21.0442 27.9576
" />
<path d="M-20.6156 27.8861
L-20.0442 27.8861
" />
<path d="M-20.4013 27.3861
L-20.4013 28.6718
" />
<path d="M-20.4013 28.6718
L-20.3299 28.8147
" />
<path d="M-20.3299 28.8147
L-20.1870 28.8861
" />
<path d="M-20.1870 28.8861
L-20.0442 28.8861
" />
<path d="M-19.3299 28.8861
L-19.4727 28.8147
" />
<path d="M-19.4727 28.8147
L-19.5442 28.7433
" />
<path d="M-19.5442 28.7433
L-19.6156 28.6004
" />
<path d="M-19.6156 28.6004
L-19.6156 28.1718
" />
<path d="M-19.6156 28.1718
L-19.5442 28.0290
" />
<path d="M-19.5442 28.0290
L-19.4727 27.9576
" />
<path d="M-19.4727 27.9576
L-19.3299 27.8861
" />
<path d="M-19.3299 27.8861
L-19.1156 27.8861
" />
<path d="M-19.1156 27.8861
L-18.9727 27.9576
" />
<path d="M-18.9727 27.9576
L-18.9013 28.0290
" />
<path d="M-18.9013 28.0290
L-18.8299 28.1718
" />
<path d="M-18.8299 28.1718
L-18.8299 28.6004
" />
<path d="M-18.8299 28.6004
L-18.9013 28.7433
" />
<path d="M-18.9013 28.7433
L-18.9727 28.8147
" />
<path d="M-18.9727 28.8147
L-19.1156 28.8861
" />
<path d="M-19.1156 28.8861
L-19.3299 28.8861
" />
<path d="M-18.1870 28.8861
L-18.1870 27.8861
" />
<path d="M-18.1870 28.1718
L-18.1156 28.0290
" />
<path d="M-18.1156 28.0290
L-18.0442 27.9576
" />
<path d="M-18.0442 27.9576
L-17.9013 27.8861
" />
<path d="M-17.9013 27.8861
L-17.7585 27.8861
" />
<path d="M-17.2585 28.7433
L-17.1870 28.8147
" />
<path d="M-17.1870 28.8147
L-17.2585 28.8861
" />
<path d="M-17.2585 28.8861
L-17.3299 28.8147
" />
<path d="M-17.3299 28.8147
L-17.2585 28.7433
" />
<path d="M-17.2585 28.7433
L-17.2585 28.8861
" />
<path d="M-16.5442 28.8861
L-16.5442 27.3861
" />
<path d="M-16.4013 28.3147
L-15.9727 28.8861
" />
<path d="M-15.9727 27.8861
L-16.5442 28.4576
" />
<path d="M-15.3299 28.8861
L-15.3299 27.8861
" />
<path d="M-15.3299 27.3861
L-15.4013 27.4576
" />
<path d="M-15.4013 27.4576
L-15.3299 27.5290
" />
<path d="M-15.3299 27.5290
L-15.2585 27.4576
" />
<path d="M-15.2585 27.4576
L-15.3299 27.3861
" />
<path d="M-15.3299 27.3861
L-15.3299 27.5290
" />
<path d="M-13.9727 28.8147
L-14.1156 28.8861
" />
<path d="M-14.1156 28.8861
L-14.4013 28.8861
" />
<path d="M-14.4013 28.8861
L-14.5442 28.8147
" />
<path d="M-14.5442 28.8147
L-14.6156 28.7433
" />
<path d="M-14.6156 28.7433
L-14.6870 28.6004
" />
<path d="M-14.6870 28.6004
L-14.6870 28.1718
" />
<path d="M-14.6870 28.1718
L-14.6156 28.0290
" />
<path d="M-14.6156 28.0290
L-14.5442 27.9576
" />
<path d="M-14.5442 27.9576
L-14.4013 27.8861
" />
<path d="M-14.4013 27.8861
L-14.1156 27.8861
" />
<path d="M-14.1156 27.8861
L-13.9727 27.9576
" />
<path d="M-12.6870 28.8861
L-12.6870 28.1004
" />
<path d="M-12.6870 28.1004
L-12.7585 27.9576
" />
<path d="M-12.7585 27.9576
L-12.9013 27.8861
" />
<path d="M-12.9013 27.8861
L-13.1870 27.8861
" />
<path d="M-13.1870 27.8861
L-13.3299 27.9576
" />
<path d="M-12.6870 28.8147
L-12.8299 28.8861
" />
<path d="M-12.8299 28.8861
L-13.1870 28.8861
" />
<path d="M-13.1870 28.8861
L-13.3299 28.8147
" />
<path d="M-13.3299 28.8147
L-13.4013 28.6718
" />
<path d="M-13.4013 28.6718
L-13.4013 28.5290
" />
<path d="M-13.4013 28.5290
L-13.3299 28.3861
" />
<path d="M-13.3299 28.3861
L-13.1870 28.3147
" />
<path d="M-13.1870 28.3147
L-12.8299 28.3147
" />
<path d="M-12.8299 28.3147
L-12.6870 28.2433
" />
<path d="M-11.3299 28.8861
L-11.3299 27.3861
" />
<path d="M-11.3299 28.8147
L-11.4727 28.8861
" />
<path d="M-11.4727 28.8861
L-11.7585 28.8861
" />
<path d="M-11.7585 28.8861
L-11.9013 28.8147
" />
<path d="M-11.9013 28.8147
L-11.9727 28.7433
" />
<path d="M-11.9727 28.7433
L-12.0442 28.6004
" />
<path d="M-12.0442 28.6004
L-12.0442 28.1718
" />
<path d="M-12.0442 28.1718
L-11.9727 28.0290
" />
<path d="M-11.9727 28.0290
L-11.9013 27.9576
" />
<path d="M-11.9013 27.9576
L-11.7585 27.8861
" />
<path d="M-11.7585 27.8861
L-11.4727 27.8861
" />
<path d="M-11.4727 27.8861
L-11.3299 27.9576
" />
<path d="M-10.9727 29.0290
L-9.8299 29.0290
" />
<path d="M-9.4727 27.8861
L-9.4727 29.3861
" />
<path d="M-9.4727 27.9576
L-9.3299 27.8861
" />
<path d="M-9.3299 27.8861
L-9.0442 27.8861
" />
<path d="M-9.0442 27.8861
L-8.9013 27.9576
" />
<path d="M-8.9013 27.9576
L-8.8299 28.0290
" />
<path d="M-8.8299 28.0290
L-8.7585 28.1718
" />
<path d="M-8.7585 28.1718
L-8.7585 28.6004
" />
<path d="M-8.7585 28.6004
L-8.8299 28.7433
" />
<path d="M-8.8299 28.7433
L-8.9013 28.8147
" />
<path d="M-8.9013 28.8147
L-9.0442 28.8861
" />
<path d="M-9.0442 28.8861
L-9.3299 28.8861
" />
<path d="M-9.3299 28.8861
L-9.4727 28.8147
" />
<path d="M-7.4727 28.8147
L-7.6156 28.8861
" />
<path d="M-7.6156 28.8861
L-7.9013 28.8861
" />
<path d="M-7.9013 28.8861
L-8.0442 28.8147
" />
<path d="M-8.0442 28.8147
L-8.1156 28.7433
" />
<path d="M-8.1156 28.7433
L-8.1870 28.6004
" />
<path d="M-8.1870 28.6004
L-8.1870 28.1718
" />
<path d="M-8.1870 28.1718
L-8.1156 28.0290
" />
<path d="M-8.1156 28.0290
L-8.0442 27.9576
" />
<path d="M-8.0442 27.9576
L-7.9013 27.8861
" />
<path d="M-7.9013 27.8861
L-7.6156 27.8861
" />
<path d="M-7.6156 27.8861
L-7.4727 27.9576
" />
<path d="M-6.8299 28.8861
L-6.8299 27.3861
" />
<path d="M-6.8299 27.9576
L-6.6870 27.8861
" />
<path d="M-6.6870 27.8861
L-6.4013 27.8861
" />
<path d="M-6.4013 27.8861
L-6.2585 27.9576
" />
<path d="M-6.2585 27.9576
L-6.1870 28.0290
" />
<path d="M-6.1870 28.0290
L-6.1156 28.1718
" />
<path d="M-6.1156 28.1718
L-6.1156 28.6004
" />
<path d="M-6.1156 28.6004
L-6.1870 28.7433
" />
<path d="M-6.1870 28.7433
L-6.2585 28.8147
" />
<path d="M-6.2585 28.8147
L-6.4013 28.8861
" />
<path d="M-6.4013 28.8861
L-6.6870 28.8861
" />
<path d="M-6.6870 28.8861
L-6.8299 28.8147
" />
</g><path d="M-45.0000 24.0000
L63.0000 24.0000
" />
<text x="-44.0000" y="26.2500"
textLength="8.2214" font-size="2.0000" lengthAdjust="spacingAndGlyphs"
text-anchor="start" opacity="0" stroke-opacity="0">Sheet: </text>
<g class="stroked-text"><desc>Sheet: </desc>
<path d="M-43.6156 26.1147
L-43.4013 26.1861
" />
<path d="M-43.4013 26.1861
L-43.0442 26.1861
" />
<path d="M-43.0442 26.1861
L-42.9013 26.1147
" />
<path d="M-42.9013 26.1147
L-42.8299 26.0433
" />
<path d="M-42.8299 26.0433
L-42.7585 25.9004
" />
<path d="M-42.7585 25.9004
L-42.7585 25.7576
" />
<path d="M-42.7585 25.7576
L-42.8299 25.6147
" />
<path d="M-42.8299 25.6147
L-42.9013 25.5433
" />
<path d="M-42.9013 25.5433
L-43.0442 25.4718
" />
<path d="M-43.0442 25.4718
L-43.3299 25.4004
" />
<path d="M-43.3299 25.4004
L-43.4727 25.3290
" />
<path d="M-43.4727 25.3290
L-43.5442 25.2576
" />
<path d="M-43.5442 25.2576
L-43.6156 25.1147
" />
<path d="M-43.6156 25.1147
L-43.6156 24.9718
" />
<path d="M-43.6156 24.9718
L-43.5442 24.8290
" />
<path d="M-43.5442 24.8290
L-43.4727 24.7576
" />
<path d="M-43.4727 24.7576
L-43.3299 24.6861
" />
<path d="M-43.3299 24.6861
L-42.9727 24.6861
" />
<path d="M-42.9727 24.6861
L-42.7585 24.7576
" />
<path d="M-42.1156 26.1861
L-42.1156 24.6861
" />
<path d="M-41.4727 26.1861
L-41.4727 25.4004
" />
<path d="M-41.4727 25.4004
L-41.5442 25.2576
" />
<path d="M-41.5442 25.2576
L-41.6870 25.1861
" />
<path d="M-41.6870 25.1861
L-41.9013 25.1861
" />
<path d="M-41.9013 25.1861
L-42.0442 25.2576
" />
<path d="M-42.0442 25.2576
L-42.1156 25.3290
" />
<path d="M-40.1870 26.1147
L-40.3299 26.1861
" />
<path d="M-40.3299 26.1861
L-40.6156 26.1861
" />
<path d="M-40.6156 26.1861
L-40.7585 26.1147
" />
<path d="M-40.7585 26.1147
L-40.8299 25.9718
" />
<path d="M-40.8299 25.9718
L-40.8299 25.4004
" />
<path d="M-40.8299 25.4004
L-40.7585 25.2576
" />
<path d="M-40.7585 25.2576
L-40.6156 25.1861
" />
<path d="M-40.6156 25.1861
L-40.3299 25.1861
" />
<path d="M-40.3299 25.1861
L-40.1870 25.2576
" />
<path d="M-40.1870 25.2576
L-40.1156 25.4004
" />
<path d="M-40.1156 25.4004
L-40.1156 25.5433
" />
<path d="M-40.1156 25.5433
L-40.8299 25.6861
" />
<path d="M-38.9013 26.1147
L-39.0442 26.1861
" />
<path d="M-39.0442 26.1861
L-39.3299 26.1861
" />
<path d="M-39.3299 26.1861
L-39.4727 26.1147
" />
<path d="M-39.4727 26.1147
L-39.5442 25.9718
" />
<path d="M-39.5442 25.9718
L-39.5442 25.4004
" />
<path d="M-39.5442 25.4004
L-39.4727 25.2576
" />
<path d="M-39.4727 25.2576
L-39.3299 25.1861
" />
<path d="M-39.3299 25.1861
L-39.0442 25.1861
" />
<path d="M-39.0442 25.1861
L-38.9013 25.2576
" />
<path d="M-38.9013 25.2576
L-38.8299 25.4004
" />
<path d="M-38.8299 25.4004
L-38.8299 25.5433
" />
<path d="M-38.8299 25.5433
L-39.5442 25.6861
" />
<path d="M-38.4013 25.1861
L-37.8299 25.1861
" />
<path d="M-38.1870 24.6861
L-38.1870 25.9718
" />
<path d="M-38.1870 25.9718
L-38.1156 26.1147
" />
<path d="M-38.1156 26.1147
L-37.9727 26.1861
" />
<path d="M-37.9727 26.1861
L-37.8299 26.1861
" />
<path d="M-37.3299 26.0433
L-37.2585 26.1147
" />
<path d="M-37.2585 26.1147
L-37.3299 26.1861
" />
<path d="M-37.3299 26.1861
L-37.4013 26.1147
" />
<path d="M-37.4013 26.1147
L-37.3299 26.0433
" />
<path d="M-37.3299 26.0433
L-37.3299 26.1861
" />
<path d="M-37.3299 25.2576
L-37.2585 25.3290
" />
<path d="M-37.2585 25.3290
L-37.3299 25.4004
" />
<path d="M-37.3299 25.4004
L-37.4013 25.3290
" />
<path d="M-37.4013 25.3290
L-37.3299 25.2576
" />
<path d="M-37.3299 25.2576
L-37.3299 25.4004
" />
</g></g>
<g style="fill:none; 
stroke:#C872AB; stroke-width:0.3000; stroke-opacity:1; 
stroke-linecap:round; stroke-linejoin:round;">
<text x="-44.0000" y="23.2500"
textLength="0.9000" font-size="2.0000" lengthAdjust="spacingAndGlyphs"
text-anchor="start" opacity="0" stroke-opacity="0"></text>
<g class="stroked-text"><desc></desc>
</g></g>
<g style="fill:none; 
stroke:#C872AB; stroke-width:0.1500; stroke-opacity:1; 
stroke-linecap:round; stroke-linejoin:round;">
<text x="-44.0000" y="20.2500"
textLength="0.4500" font-size="2.0000" lengthAdjust="spacingAndGlyphs"
text-anchor="start" opacity="0" stroke-opacity="0"></text>
<g class="stroked-text"><desc></desc>
</g><text x="-44.0000" y="17.2500"
textLength="0.4500" font-size="2.0000" lengthAdjust="spacingAndGlyphs"
text-anchor="start" opacity="0" stroke-opacity="0"></text>
<g class="stroked-text"><desc></desc>
</g><text x="-44.0000" y="14.2500"
textLength="0.4500" font-size="2.0000" lengthAdjust="spacingAndGlyphs"
text-anchor="start" opacity="0" stroke-opacity="0"></text>
<g class="stroked-text"><desc></desc>
</g><text x="-44.0000" y="11.2500"
textLength="0.4500" font-size="2.0000" lengthAdjust="spacingAndGlyphs"
text-anchor="start" opacity="0" stroke-opacity="0"></text>
<g class="stroked-text"><desc></desc>
</g><path d="M-25.0000 34.0000
L-25.0000 37.0000
" />
<path d="M39.0000 34.0000
L39.0000 40.5000
" />
</g>
<g style="fill:#C83434; fill-opacity:1.0000; stroke:none;">
<circle cx="47.0000" cy="3.0000" r="2.0000" /> 
<circle cx="3.0000" cy="32.0000" r="2.0000" /> 
<path style="fill:#C83434; fill-opacity:1.0000; stroke:none;fill-rule:evenodd;"
d="M 36.1500,28.5100
36.1500,26.8100
37.8500,26.8100
37.8500,28.5100
Z" /> 
<circle cx="37.0000" cy="25.1200" r="0.8500" /> 
<circle cx="37.0000" cy="22.5800" r="0.8500" /> 
<circle cx="37.0000" cy="20.0400" r="0.8500" /> 
<circle cx="37.0000" cy="17.5000" r="0.8500" /> 
<circle cx="37.0000" cy="14.9600" r="0.8500" /> 
<circle cx="37.0000" cy="12.4200" r="0.8500" /> 
<circle cx="37.0000" cy="9.8800" r="0.8500" /> 
<circle cx="3.0000" cy="3.0000" r="2.0000" /> 
<path style="fill:#C83434; fill-opacity:1.0000; stroke:none;fill-rule:evenodd;"
d="M 6.1500,0.5700
6.1500,-1.1300
7.8500,-1.1300
7.8500,0.5700
Z" /> 
<circle cx="7.0000" cy="2.2600" r="0.8500" /> 
<circle cx="7.0000" cy="4.8000" r="0.8500" /> 
<circle cx="7.0000" cy="7.3400" r="0.8500" /> 
<circle cx="7.0000" cy="9.8800" r="0.8500" /> 
<circle cx="7.0000" cy="12.4200" r="0.8500" /> 
<circle cx="7.0000" cy="14.9600" r="0.8500" /> 
<circle cx="7.0000" cy="17.5000" r="0.8500" /> 
<circle cx="7.0000" cy="20.0400" r="0.8500" /> 
<circle cx="7.0000" cy="22.5800" r="0.8500" /> 
<circle cx="7.0000" cy="25.1200" r="0.8500" /> 
<circle cx="7.0000" cy="27.6600" r="0.8500" /> 
<circle cx="7.0000" cy="30.2000" r="0.8500" /> 
<circle cx="7.0000" cy="32.7400" r="0.8500" /> 
<circle cx="7.0000" cy="35.2800" r="0.8500" /> 
<path style="fill:#C83434; fill-opacity:1.0000; stroke:none;fill-rule:evenodd;"
d="M 29.6500,0.5700
29.6500,-1.1300
31.3500,-1.1300
31.3500,0.5700
Z" /> 
<circle cx="30.5000" cy="2.2600" r="0.8500" /> 
<circle cx="30.5000" cy="4.8000" r="0.8500" /> 
<circle cx="30.5000" cy="7.3400" r="0.8500" /> 
<circle cx="30.5000" cy="9.8800" r="0.8500" /> 
<circle cx="30.5000" cy="12.4200" r="0.8500" /> 
<circle cx="30.5000" cy="14.9600" r="0.8500" /> 
<circle cx="30.5000" cy="17.5000" r="0.8500" /> 
<circle cx="30.5000" cy="20.0400" r="0.8500" /> 
<circle cx="30.5000" cy="22.5800" r="0.8500" /> 
<circle cx="30.5000" cy="25.1200" r="0.8500" /> 
<circle cx="30.5000" cy="27.6600" r="0.8500" /> 
<circle cx="30.5000" cy="30.2000" r="0.8500" /> 
<circle cx="30.5000" cy="32.7400" r="0.8500" /> 
<circle cx="30.5000" cy="35.2800" r="0.8500" /> 
<circle cx="47.0000" cy="32.0000" r="2.0000" /> 
</g>
<g style="fill:none; 
stroke:#C83434; stroke-width:0.2540; stroke-opacity:1; 
stroke-linecap:round; stroke-linejoin:round;">
<path d="M19.0000 27.6600
L37.0000 27.6600
" />
<path d="M19.0000 2.2600
L19.0000 27.6600
" />
<path d="M7.0000 2.2600
L19.0000 2.2600
" />
<path d="M7.0000 14.9600
L27.0000 14.9600
" />
<path d="M27.0000 20.0400
L37.0000 20.0400
" />
<path d="M27.0000 14.9600
L27.0000 20.0400
" />
<path d="M7.0000 17.5000
L25.0000 17.5000
" />
<path d="M25.0000 22.5800
L37.0000 22.5800
" />
<path d="M25.0000 17.5000
L25.0000 22.5800
" />
<path d="M29.0000 9.8800
L37.0000 9.8800
" />
<path d="M7.0000 9.8800
L29.0000 9.8800
" />
</g>
<g style="fill:#C83434; fill-opacity:1.0000; stroke:none;">
<circle cx="29.0000" cy="9.8800" r="0.1270" /> 
</g>
<g style="fill:#4D7FC4; fill-opacity:1.0000; stroke:none;">
<circle cx="47.0000" cy="3.0000" r="2.0000" /> 
<circle cx="3.0000" cy="32.0000" r="2.0000" /> 
<path style="fill:#4D7FC4; fill-opacity:1.0000; stroke:none;fill-rule:evenodd;"
d="M 36.1500,28.5100
36.1500,26.8100
37.8500,26.8100
37.8500,28.5100
Z" /> 
<circle cx="37.0000" cy="25.1200" r="0.8500" /> 
<circle cx="37.0000" cy="22.5800" r="0.8500" /> 
<circle cx="37.0000" cy="20.0400" r="0.8500" /> 
<circle cx="37.0000" cy="17.5000" r="0.8500" /> 
<circle cx="37.0000" cy="14.9600" r="0.8500" /> 
<circle cx="37.0000" cy="12.4200" r="0.8500" /> 
<circle cx="37.0000" cy="9.8800" r="0.8500" /> 
<circle cx="3.0000" cy="3.0000" r="2.0000" /> 
<path style="fill:#4D7FC4; fill-opacity:1.0000; stroke:none;fill-rule:evenodd;"
d="M 6.1500,0.5700
6.1500,-1.1300
7.8500,-1.1300
7.8500,0.5700
Z" /> 
<circle cx="7.0000" cy="2.2600" r="0.8500" /> 
<circle cx="7.0000" cy="4.8000" r="0.8500" /> 
<circle cx="7.0000" cy="7.3400" r="0.8500" /> 
<circle cx="7.0000" cy="9.8800" r="0.8500" /> 
<circle cx="7.0000" cy="12.4200" r="0.8500" /> 
<circle cx="7.0000" cy="14.9600" r="0.8500" /> 
<circle cx="7.0000" cy="17.5000" r="0.8500" /> 
<circle cx="7.0000" cy="20.0400" r="0.8500" /> 
<circle cx="7.0000" cy="22.5800" r="0.8500" /> 
<circle cx="7.0000" cy="25.1200" r="0.8500" /> 
<circle cx="7.0000" cy="27.6600" r="0.8500" /> 
<circle cx="7.0000" cy="30.2000" r="0.8500" /> 
<circle cx="7.0000" cy="32.7400" r="0.8500" /> 
<circle cx="7.0000" cy="35.2800" r="0.8500" /> 
<path style="fill:#4D7FC4; fill-opacity:1.0000; stroke:none;fill-rule:evenodd;"
d="M 29.6500,0.5700
29.6500,-1.1300
31.3500,-1.1300
31.3500,0.5700
Z" /> 
<circle cx="30.5000" cy="2.2600" r="0.8500" /> 
<circle cx="30.5000" cy="4.8000" r="0.8500" /> 
<circle cx="30.5000" cy="7.3400" r="0.8500" /> 
<circle cx="30.5000" cy="9.8800" r="0.8500" /> 
<circle cx="30.5000" cy="12.4200" r="0.8500" /> 
<circle cx="30.5000" cy="14.9600" r="0.8500" /> 
<circle cx="30.5000" cy="17.5000" r="0.8500" /> 
<circle cx="30.5000" cy="20.0400" r="0.8500" /> 
<circle cx="30.5000" cy="22.5800" r="0.8500" /> 
<circle cx="30.5000" cy="25.1200" r="0.8500" /> 
<circle cx="30.5000" cy="27.6600" r="0.8500" /> 
<circle cx="30.5000" cy="30.2000" r="0.8500" /> 
<circle cx="30.5000" cy="32.7400" r="0.8500" /> 
<circle cx="30.5000" cy="35.2800" r="0.8500" /> 
<circle cx="47.0000" cy="32.0000" r="2.0000" /> 
</g>
<g style="fill:none; 
stroke:#D0D2CD; stroke-width:0.1000; stroke-opacity:1; 
stroke-linecap:round; stroke-linejoin:round;">
<path d="M0.0000 0.0000
L50.0000 0.0000
" />
<path d="M0.0000 35.0000
L0.0000 0.0000
" />
<path d="M50.0000 0.0000
L50.0000 35.0000
" />
<path d="M50.0000 35.0000
L0.0000 35.0000
" />
</g>
<g style="fill:#FFFFFF; fill-opacity:1.0000; stroke:none;">
<circle cx="47.0000" cy="3.0000" r="1.6000" /> 
</g>
<g style="fill:#FFFFFF; fill-opacity:1.0000; stroke:none;">
<circle cx="3.0000" cy="32.0000" r="1.6000" /> 
</g>
<g style="fill:#FFFFFF; fill-opacity:1.0000; stroke:none;">
<circle cx="37.0000" cy="27.6600" r="0.5000" /> 
</g>
<g style="fill:#FFFFFF; fill-opacity:1.0000; stroke:none;">
<circle cx="37.0000" cy="25.1200" r="0.5000" /> 
</g>
<g style="fill:#FFFFFF; fill-opacity:1.0000; stroke:none;">
<circle cx="37.0000" cy="22.5800" r="0.5000" /> 
</g>
<g style="fill:#FFFFFF; fill-opacity:1.0000; stroke:none;">
<circle cx="37.0000" cy="20.0400" r="0.5000" /> 
</g>
<g style="fill:#FFFFFF; fill-opacity:1.0000; stroke:none;">
<circle cx="37.0000" cy="17.5000" r="0.5000" /> 
</g>
<g style="fill:#FFFFFF; fill-opacity:1.0000; stroke:none;">
<circle cx="37.0000" cy="14.9600" r="0.5000" /> 
</g>
<g style="fill:#FFFFFF; fill-opacity:1.0000; stroke:none;">
<circle cx="37.0000" cy="12.4200" r="0.5000" /> 
</g>
<g style="fill:#FFFFFF; fill-opacity:1.0000; stroke:none;">
<circle cx="37.0000" cy="9.8800" r="0.5000" /> 
</g>
<g style="fill:#FFFFFF; fill-opacity:1.0000; stroke:none;">
<circle cx="3.0000" cy="3.0000" r="1.6000" /> 
</g>
<g style="fill:#FFFFFF; fill-opacity:1.0000; stroke:none;">
<circle cx="7.0000" cy="-0.2800" r="0.5000" /> 
</g>
<g style="fill:#FFFFFF; fill-opacity:1.0000; stroke:none;">
<circle cx="7.0000" cy="2.2600" r="0.5000" /> 
</g>
<g style="fill:#FFFFFF; fill-opacity:1.0000; stroke:none;">
<circle cx="7.0000" cy="4.8000" r="0.5000" /> 
</g>
<g style="fill:#FFFFFF; fill-opacity:1.0000; stroke:none;">
<circle cx="7.0000" cy="7.3400" r="0.5000" /> 
</g>
<g style="fill:#FFFFFF; fill-opacity:1.0000; stroke:none;">
<circle cx="7.0000" cy="9.8800" r="0.5000" /> 
</g>
<g style="fill:#FFFFFF; fill-opacity:1.0000; stroke:none;">
<circle cx="7.0000" cy="12.4200" r="0.5000" /> 
</g>
<g style="fill:#FFFFFF; fill-opacity:1.0000; stroke:none;">
<circle cx="7.0000" cy="14.9600" r="0.5000" /> 
</g>
<g style="fill:#FFFFFF; fill-opacity:1.0000; stroke:none;">
<circle cx="7.0000" cy="17.5000" r="0.5000" /> 
</g>
<g style="fill:#FFFFFF; fill-opacity:1.0000; stroke:none;">
<circle cx="7.0000" cy="20.0400" r="0.5000" /> 
</g>
<g style="fill:#FFFFFF; fill-opacity:1.0000; stroke:none;">
<circle cx="7.0000" cy="22.5800" r="0.5000" /> 
</g>
<g style="fill:#FFFFFF; fill-opacity:1.0000; stroke:none;">
<circle cx="7.0000" cy="25.1200" r="0.5000" /> 
</g>
<g style="fill:#FFFFFF; fill-opacity:1.0000; stroke:none;">
<circle cx="7.0000" cy="27.6600" r="0.5000" /> 
</g>
<g style="fill:#FFFFFF; fill-opacity:1.0000; stroke:none;">
<circle cx="7.0000" cy="30.2000" r="0.5000" /> 
</g>
<g style="fill:#FFFFFF; fill-opacity:1.0000; stroke:none;">
<circle cx="7.0000" cy="32.7400" r="0.5000" /> 
</g>
<g style="fill:#FFFFFF; fill-opacity:1.0000; stroke:none;">
<circle cx="7.0000" cy="35.2800" r="0.5000" /> 
</g>
<g style="fill:#FFFFFF; fill-opacity:1.0000; stroke:none;">
<circle cx="30.5000" cy="-0.2800" r="0.5000" /> 
</g>
<g style="fill:#FFFFFF; fill-opacity:1.0000; stroke:none;">
<circle cx="30.5000" cy="2.2600" r="0.5000" /> 
</g>
<g style="fill:#FFFFFF; fill-opacity:1.0000; stroke:none;">
<circle cx="30.5000" cy="4.8000" r="0.5000" /> 
</g>
<g style="fill:#FFFFFF; fill-opacity:1.0000; stroke:none;">
<circle cx="30.5000" cy="7.3400" r="0.5000" /> 
</g>
<g style="fill:#FFFFFF; fill-opacity:1.0000; stroke:none;">
<circle cx="30.5000" cy="9.8800" r="0.5000" /> 
</g>
<g style="fill:#FFFFFF; fill-opacity:1.0000; stroke:none;">
<circle cx="30.5000" cy="12.4200" r="0.5000" /> 
</g>
<g style="fill:#FFFFFF; fill-opacity:1.0000; stroke:none;">
<circle cx="30.5000" cy="14.9600" r="0.5000" /> 
</g>
<g style="fill:#FFFFFF; fill-opacity:1.0000; stroke:none;">
<circle cx="30.5000" cy="17.5000" r="0.5000" /> 
</g>
<g style="fill:#FFFFFF; fill-opacity:1.0000; stroke:none;">
<circle cx="30.5000" cy="20.0400" r="0.5000" /> 
</g>
<g style="fill:#FFFFFF; fill-opacity:1.0000; stroke:none;">
<circle cx="30.5000" cy="22.5800" r="0.5000" /> 
</g>
<g style="fill:#FFFFFF; fill-opacity:1.0000; stroke:none;">
<circle cx="30.5000" cy="25.1200" r="0.5000" /> 
</g>
<g style="fill:#FFFFFF; fill-opacity:1.0000; stroke:none;">
<circle cx="30.5000" cy="27.6600" r="0.5000" /> 
</g>
<g style="fill:#FFFFFF; fill-opacity:1.0000; stroke:none;">
<circle cx="30.5000" cy="30.2000" r="0.5000" /> 
</g>
<g style="fill:#FFFFFF; fill-opacity:1.0000; stroke:none;">
<circle cx="30.5000" cy="32.7400" r="0.5000" /> 
</g>
<g style="fill:#FFFFFF; fill-opacity:1.0000; stroke:none;">
<circle cx="30.5000" cy="35.2800" r="0.5000" /> 
</g>
<g style="fill:#FFFFFF; fill-opacity:1.0000; stroke:none;">
<circle cx="47.0000" cy="32.0000" r="1.6000" /> 
</g> 
</svg>
